G04 ================== begin FILE IDENTIFICATION RECORD ==================*
G04 Layout Name:  G:/Cadence Allegro/My_Prj/MPU6050_MODEULE/PCB/mpu6050-layout.brd*
G04 Film Name:    02_BOTTOM*
G04 File Format:  Gerber RS274X*
G04 File Origin:  Cadence Allegro 16.6-2015-S108*
G04 Origin Date:  Fri Aug 23 21:18:55 2019*
G04 *
G04 Layer:  BOARD GEOMETRY/OUTLINE*
G04 Layer:  ETCH/BOTTOM*
G04 Layer:  PIN/BOTTOM*
G04 Layer:  VIA CLASS/BOTTOM*
G04 *
G04 Offset:    (0.000 0.000)*
G04 Mirror:    No*
G04 Mode:      Positive*
G04 Rotation:  0*
G04 FullContactRelief:  No*
G04 UndefLineWidth:     6.000*
G04 ================== end FILE IDENTIFICATION RECORD ====================*
%FSLAX25Y25*MOIN*%
%IR0*IPPOS*OFA0.00000B0.00000*MIA0B0*SFA1.00000B1.00000*%
%ADD10C,.024*%
%ADD11C,.063*%
%ADD12R,.063X.063*%
%ADD13C,.012*%
%ADD14C,.015*%
%ADD15C,.006*%
%ADD16C,.073004*%
%ADD17C,.093004*%
G75*
%LPD*%
G75*
G36*
G01X1968Y1000D02*
G02X1000Y1968I0J969D01*
G01Y36239D01*
G02X1200Y36439I200J0D01*
G01X1417D01*
G02X1559Y36381I0J-200D01*
G01X7822Y30117D01*
G03X7964Y30058I141J141D01*
G01X8281D01*
X8334Y30043D01*
X8357Y30029D01*
G03X8461Y30000I104J171D01*
G01X58917D01*
G03X60119Y30498I0J1700D01*
G01X68942Y39320D01*
G03X69000Y39461I-141J142D01*
G01Y56800D01*
G03X68800Y57000I-200J0D01*
G01X60379D01*
X60378Y57000D01*
X57083D01*
G03X56941Y56941I0J-200D01*
G01X56238Y56238D01*
G02X56053Y56185I-141J141D01*
G01X56007Y56195D01*
X55987Y56205D01*
G03X50068Y54483I-1987J-4205D01*
G03X52513Y47594I3932J-2483D01*
G03X55149Y47494I1487J4406D01*
G01X55173Y47500D01*
X58800D01*
G02X59000Y47300I0J-200D01*
G01Y42204D01*
G02X58941Y42063I-200J0D01*
G01X55437Y38559D01*
G02X55296Y38500I-141J141D01*
G01X12204D01*
G02X12063Y38559I0J200D01*
G01X9559Y41063D01*
G02X9500Y41204I142J141D01*
G01Y46417D01*
G03X9002Y47619I-1700J0D01*
G01X8119Y48502D01*
G03X6917Y49000I-1202J-1202D01*
G01X2700D01*
G03X1672Y48654I0J-1700D01*
G01X1647Y48635D01*
X1575Y48610D01*
G02X1422Y48619I-66J189D01*
G01X1113Y48770D01*
G02X1000Y48950I87J180D01*
G01Y56917D01*
G02X1059Y57059I200J0D01*
G01X1941Y57941D01*
G02X2083Y58000I141J-141D01*
G01X3902D01*
X3975Y58030D01*
X4000Y58055D01*
X76772D01*
G02X77740Y57087I0J-968D01*
G01Y1968D01*
G02X76772Y1000I-968J0D01*
G01X1968D01*
G37*
G36*
G01X2500Y38000D02*
Y47300D01*
G02X2700Y47500I200J0D01*
G01X6917D01*
G02X7059Y47441I0J-200D01*
G01X7941Y46559D01*
G02X8000Y46417I-141J-142D01*
G01Y40583D01*
G03X8059Y40441I200J0D01*
G01X11441Y37059D01*
G03X11583Y37000I142J141D01*
G01X55917D01*
G03X56059Y37059I0J200D01*
G01X60441Y41441D01*
G03X60500Y41583I-141J142D01*
G01Y48150D01*
Y55000D01*
X61000Y55500D01*
X66500D01*
X67500D01*
Y40000D01*
X59059Y31559D01*
G02X58917Y31500I-142J141D01*
G01X9000D01*
X2500Y38000D01*
G37*
%LPC*%
G75*
G36*
G01X40985Y46685D02*
X42661Y45009D01*
G03X42803Y44950I141J141D01*
G01X51800D01*
G02Y40750I0J-2100D01*
G01X41063D01*
G02X40922Y40808I0J200D01*
G01X38015Y43715D01*
G02X40985Y46685I1485J1485D01*
G37*
G36*
G01X56402Y16980D02*
X49120Y9698D01*
G02X47918Y9200I-1203J1202D01*
G01X46753D01*
G03X46611Y9141I0J-200D01*
G01X46600Y9130D01*
Y6350D01*
G02X42400I-2100J0D01*
G01Y9047D01*
G03X42341Y9189I-200J0D01*
G01X42330Y9200D01*
X25682D01*
G02X24480Y9698I0J1700D01*
G01X24398Y9780D01*
G02X23900Y10982I1202J1203D01*
G01Y14218D01*
G02X24398Y15420I1700J0D01*
G01X24480Y15502D01*
G02X25682Y16000I1203J-1202D01*
G01X44396D01*
G03X44537Y16059I0J200D01*
G01X48141Y19663D01*
G03X48200Y19804I-141J141D01*
G01Y22739D01*
G02X48258Y22880I200J0D01*
G01X49420Y24042D01*
G02X49561Y24100I141J-141D01*
G01X55656D01*
G02X55797Y24042I0J-200D01*
G01X56842Y22997D01*
G02X56900Y22856I-141J-141D01*
G01Y18182D01*
G02X56402Y16980I-1700J0D01*
G37*
G54D16*
X14000Y52000D03*
G54D17*
X24000D03*
X34000D03*
X44000D03*
%LPD*%
G75*
G36*
G01X25459Y14359D02*
X25541Y14441D01*
G02X25683Y14500I142J-141D01*
G01X45017D01*
G03X45159Y14559I0J200D01*
G01X49641Y19041D01*
G03X49700Y19183I-141J142D01*
G01Y22117D01*
Y22200D01*
X50100Y22600D01*
X51500D01*
X55117D01*
X55400Y22317D01*
Y22000D01*
Y18183D01*
G02X55341Y18041I-200J0D01*
G01X48059Y10759D01*
G02X47917Y10700I-142J141D01*
G01X25683D01*
G02X25541Y10759I0J200D01*
G01X25459Y10841D01*
G02X25400Y10983I141J142D01*
G01Y14217D01*
G02X25459Y14359I200J0D01*
G37*
G54D10*
X2500Y21500D03*
Y16500D03*
Y11500D03*
Y6500D03*
Y2563D03*
X7500D03*
Y21500D03*
X2500Y26500D03*
X7500D03*
X6500Y45600D03*
X3700Y45709D03*
X7500Y52000D03*
Y56500D03*
X3000Y52000D03*
Y56500D03*
X26000Y21500D03*
Y17563D03*
X21000D03*
Y21500D03*
X35563Y19063D03*
X39500D03*
X27000Y4000D03*
X32000D03*
X37000D03*
X12500Y2563D03*
X17500D03*
X26900Y13000D03*
X29900D03*
X27000Y42500D03*
X22000Y44500D03*
X26000Y26500D03*
X21000D03*
X22000Y40300D03*
X16900Y42100D03*
Y47100D03*
X35563Y26937D03*
Y23000D03*
X39500Y26937D03*
Y23000D03*
Y45200D03*
X18500Y56500D03*
X14000D03*
X49500Y6250D03*
X70500Y5000D03*
X65500D03*
X60500D03*
X65500Y10000D03*
X70500D03*
Y15000D03*
X57900Y21100D03*
X60600D03*
X65600D03*
X43437Y19063D03*
X54000Y21100D03*
X51300D03*
X44500Y6350D03*
X48000Y46500D03*
X65600Y26100D03*
Y31100D03*
X60600Y26100D03*
X43437Y23000D03*
Y26937D03*
X51800Y42850D03*
X75500Y20000D03*
Y15000D03*
Y10000D03*
Y5000D03*
Y50000D03*
Y45000D03*
Y40000D03*
Y35000D03*
Y30000D03*
Y25000D03*
Y55000D03*
G54D11*
X14000Y52000D03*
X24000D03*
X34000D03*
X44000D03*
X54000D03*
G54D12*
X64000D03*
G54D13*
G01X51800Y42850D02*
X41850D01*
X39500Y45200D01*
G01X44500Y10000D02*
X45800Y11300D01*
G01X44500Y10000D02*
X43100Y11400D01*
G01X44500Y10000D02*
Y12000D01*
G01Y6350D02*
Y10000D01*
G54D14*
G01X10150Y52000D02*
X14000D01*
G01Y48150D02*
Y52000D01*
G01D02*
Y55850D01*
G01Y52000D02*
X17850D01*
G54D15*
G01X1968Y0D02*
X76772D01*
G03X78740Y1968I0J1969D01*
G01Y57087D01*
G03X76772Y59055I-1969J0D01*
G01X1968D01*
G03X0Y57087I0J-1968D01*
G01Y1968D01*
G03X1968Y0I1969J0D01*
M02*
