G04 ================== begin FILE IDENTIFICATION RECORD ==================*
G04 Layout Name:  G:/Cadence Allegro/My_Prj/MPU6050_MODEULE/PCB/mpu6050-layout.brd*
G04 Film Name:    05_SILK_BOTTOM*
G04 File Format:  Gerber RS274X*
G04 File Origin:  Cadence Allegro 16.6-2015-S108*
G04 Origin Date:  Fri Aug 23 21:18:55 2019*
G04 *
G04 Layer:  BOARD GEOMETRY/OUTLINE*
G04 Layer:  PACKAGE GEOMETRY/SILKSCREEN_BOTTOM*
G04 Layer:  BOARD GEOMETRY/SILKSCREEN_BOTTOM*
G04 Layer:  REF DES/SILKSCREEN_BOTTOM*
G04 *
G04 Offset:    (0.000 0.000)*
G04 Mirror:    No*
G04 Mode:      Positive*
G04 Rotation:  0*
G04 FullContactRelief:  No*
G04 UndefLineWidth:     6.000*
G04 ================== end FILE IDENTIFICATION RECORD ====================*
%FSLAX25Y25*MOIN*%
%IR0*IPPOS*OFA0.00000B0.00000*MIA0B0*SFA1.00000B1.00000*%
%ADD10C,.006*%
%ADD11C,.008*%
G75*
%LPD*%
G75*
G54D10*
G01X15300Y45750D02*
X14633D01*
Y45000D01*
X14833Y44750D01*
X15067Y44583D01*
X15400Y44500D01*
X15733Y44583D01*
X15967Y44750D01*
X16167Y45000D01*
X16300Y45292D01*
X16367Y45625D01*
Y45917D01*
X16300Y46167D01*
X16167Y46458D01*
X15967Y46708D01*
X15767Y46875D01*
X15500Y47000D01*
X15267D01*
X15000Y46917D01*
X14800Y46750D01*
G01X13467Y44500D02*
Y47000D01*
X11933Y44500D01*
Y47000D01*
G01X10633Y44500D02*
Y47000D01*
X9967D01*
X9700Y46875D01*
X9500Y46708D01*
X9333Y46458D01*
X9200Y46167D01*
X9167Y45750D01*
X9200Y45333D01*
X9333Y45042D01*
X9500Y44792D01*
X9700Y44625D01*
X9967Y44500D01*
X10633D01*
G01X26400Y47000D02*
X25600D01*
G01X26000D02*
Y44500D01*
G01X26400D02*
X25600D01*
G01X23967D02*
Y47000D01*
X22433Y44500D01*
Y47000D01*
G01X20400D02*
Y44500D01*
G01X21167Y47000D02*
X19633D01*
G01X36700Y44833D02*
X36433Y44625D01*
X36133Y44500D01*
X35867D01*
X35600Y44625D01*
X35400Y44833D01*
X35300Y45125D01*
X35367Y45417D01*
X35533Y45667D01*
X35833Y45833D01*
X36233Y45917D01*
X36467Y46083D01*
X36567Y46375D01*
X36500Y46667D01*
X36333Y46875D01*
X36100Y47000D01*
X35867D01*
X35633Y46917D01*
X35433Y46708D01*
G01X33933Y44500D02*
Y47000D01*
X33267D01*
X33000Y46875D01*
X32800Y46708D01*
X32633Y46458D01*
X32500Y46167D01*
X32467Y45750D01*
X32500Y45333D01*
X32633Y45042D01*
X32800Y44792D01*
X33000Y44625D01*
X33267Y44500D01*
X33933D01*
G01X31233D02*
X30400Y47000D01*
X29567Y44500D01*
G01X29867Y45375D02*
X30933D01*
G01X46700Y44833D02*
X46433Y44625D01*
X46133Y44500D01*
X45867D01*
X45600Y44625D01*
X45400Y44833D01*
X45300Y45125D01*
X45367Y45417D01*
X45533Y45667D01*
X45833Y45833D01*
X46233Y45917D01*
X46467Y46083D01*
X46567Y46375D01*
X46500Y46667D01*
X46333Y46875D01*
X46100Y47000D01*
X45867D01*
X45633Y46917D01*
X45433Y46708D01*
G01X42467Y46792D02*
X42667Y46917D01*
X42900Y47000D01*
X43167D01*
X43467Y46875D01*
X43700Y46667D01*
X43867Y46417D01*
X44000Y46000D01*
X44033Y45625D01*
X43967Y45250D01*
X43867Y45000D01*
X43667Y44750D01*
X43433Y44583D01*
X43200Y44500D01*
X42967D01*
X42733Y44583D01*
X42533Y44708D01*
X42367Y44875D01*
G01X41067Y47000D02*
Y44500D01*
X39733D01*
G01X57233Y45000D02*
X57033Y44708D01*
X56767Y44542D01*
X56467Y44500D01*
X56200Y44542D01*
X55933Y44750D01*
X55767Y45000D01*
X55733Y45250D01*
X55800Y45542D01*
X56033Y45750D01*
X56267Y45833D01*
X56567D01*
G01X56267D02*
X56067Y45958D01*
X55900Y46167D01*
X55833Y46417D01*
X55900Y46667D01*
X56067Y46875D01*
X56367Y47000D01*
X56667Y46958D01*
X56967Y46792D01*
G01X54533Y47000D02*
X53700Y44500D01*
X52867Y47000D01*
G01X51633Y45000D02*
X51433Y44708D01*
X51167Y44542D01*
X50867Y44500D01*
X50600Y44542D01*
X50333Y44750D01*
X50167Y45000D01*
X50133Y45250D01*
X50200Y45542D01*
X50433Y45750D01*
X50667Y45833D01*
X50967D01*
G01X50667D02*
X50467Y45958D01*
X50300Y46167D01*
X50233Y46417D01*
X50300Y46667D01*
X50467Y46875D01*
X50767Y47000D01*
X51067Y46958D01*
X51367Y46792D01*
G01X65733Y44875D02*
X65533Y44667D01*
X65300Y44542D01*
X65000Y44500D01*
X64700Y44583D01*
X64467Y44750D01*
X64300Y45042D01*
X64267Y45375D01*
X64333Y45708D01*
X64500Y45917D01*
X64733Y46083D01*
X64967Y46125D01*
X65200Y46083D01*
X65500Y45917D01*
X65400Y47000D01*
X64500D01*
G01X63033D02*
X62200Y44500D01*
X61367Y47000D01*
G01X1968Y0D02*
X76772D01*
G03X78740Y1968I0J1969D01*
G01Y57087D01*
G03X76772Y59055I-1969J0D01*
G01X1968D01*
G03X0Y57087I0J-1968D01*
G01Y1968D01*
G03X1968Y0I1969J0D01*
G54D11*
G01X73833Y24500D02*
Y27500D01*
X72750Y25000D01*
X71667Y27500D01*
Y24500D01*
G01X69783D02*
Y27500D01*
X68783D01*
X68450Y27350D01*
X68200Y27000D01*
X68117Y26600D01*
X68200Y26200D01*
X68408Y25900D01*
X68783Y25750D01*
X69783D01*
G01X66067Y27500D02*
Y25350D01*
X65900Y24900D01*
X65567Y24600D01*
X65150Y24500D01*
X64733Y24600D01*
X64400Y24900D01*
X64233Y25350D01*
Y27500D01*
G01X62142Y25750D02*
X61850Y26100D01*
X61600Y26300D01*
X61267Y26400D01*
X60975Y26300D01*
X60767Y26100D01*
X60600Y25800D01*
X60558Y25450D01*
X60600Y25150D01*
X60767Y24850D01*
X61017Y24600D01*
X61308Y24500D01*
X61642Y24600D01*
X61933Y24900D01*
X62100Y25350D01*
X62142Y25850D01*
X62058Y26500D01*
X61933Y26850D01*
X61725Y27200D01*
X61433Y27450D01*
X61142Y27500D01*
X60850Y27400D01*
X60642Y27150D01*
G01X57550Y27500D02*
X57883Y27400D01*
X58133Y27150D01*
X58300Y26850D01*
X58425Y26450D01*
X58467Y26000D01*
X58425Y25550D01*
X58300Y25150D01*
X58133Y24850D01*
X57883Y24600D01*
X57550Y24500D01*
X57217Y24600D01*
X56967Y24850D01*
X56800Y25150D01*
X56675Y25550D01*
X56633Y26000D01*
X56675Y26450D01*
X56800Y26850D01*
X56967Y27150D01*
X57217Y27400D01*
X57550Y27500D01*
G01X54667Y24950D02*
X54417Y24700D01*
X54125Y24550D01*
X53750Y24500D01*
X53375Y24600D01*
X53083Y24800D01*
X52875Y25150D01*
X52833Y25550D01*
X52917Y25950D01*
X53125Y26200D01*
X53417Y26400D01*
X53708Y26450D01*
X54000Y26400D01*
X54375Y26200D01*
X54250Y27500D01*
X53125D01*
G01X49950D02*
X50283Y27400D01*
X50533Y27150D01*
X50700Y26850D01*
X50825Y26450D01*
X50867Y26000D01*
X50825Y25550D01*
X50700Y25150D01*
X50533Y24850D01*
X50283Y24600D01*
X49950Y24500D01*
X49617Y24600D01*
X49367Y24850D01*
X49200Y25150D01*
X49075Y25550D01*
X49033Y26000D01*
X49075Y26450D01*
X49200Y26850D01*
X49367Y27150D01*
X49617Y27400D01*
X49950Y27500D01*
G01X43433Y24500D02*
Y27500D01*
X42350Y25000D01*
X41267Y27500D01*
Y24500D01*
G01X38550D02*
X38800Y24550D01*
X39050Y24750D01*
X39217Y25100D01*
X39300Y25500D01*
X39217Y25900D01*
X39050Y26250D01*
X38800Y26450D01*
X38550Y26500D01*
X38300Y26450D01*
X38050Y26250D01*
X37883Y25900D01*
X37842Y25500D01*
X37883Y25100D01*
X38050Y24750D01*
X38300Y24550D01*
X38550Y24500D01*
G01X34000Y27500D02*
Y24500D01*
G01Y24950D02*
X34167Y24700D01*
X34417Y24550D01*
X34708Y24500D01*
X35042Y24600D01*
X35292Y24850D01*
X35458Y25150D01*
X35500Y25500D01*
X35458Y25850D01*
X35292Y26150D01*
X35042Y26400D01*
X34708Y26500D01*
X34417Y26450D01*
X34208Y26350D01*
X34000Y26150D01*
G01X31658Y26500D02*
Y25100D01*
X31492Y24750D01*
X31242Y24550D01*
X30950Y24500D01*
X30658Y24550D01*
X30408Y24750D01*
X30242Y25100D01*
G01Y24500D02*
Y26500D01*
G01X27150Y24500D02*
Y27500D01*
G01X23975Y25850D02*
X22642D01*
X22767Y26200D01*
X22975Y26400D01*
X23267Y26500D01*
X23558Y26450D01*
X23808Y26300D01*
X23975Y25950D01*
X24058Y25650D01*
Y25350D01*
X23975Y25050D01*
X23767Y24750D01*
X23517Y24550D01*
X23225Y24500D01*
X22933Y24600D01*
X22642Y24900D01*
G01X16792Y27500D02*
X15750Y24500D01*
X14708Y27500D01*
G01X11950Y24500D02*
Y27500D01*
X12450Y26900D01*
G01Y24500D02*
X11450D01*
G01X8150Y24400D02*
X8233Y24450D01*
Y24550D01*
X8150Y24600D01*
X8067Y24550D01*
Y24450D01*
X8150Y24400D01*
G01X4350Y27500D02*
X4683Y27400D01*
X4933Y27150D01*
X5100Y26850D01*
X5225Y26450D01*
X5267Y26000D01*
X5225Y25550D01*
X5100Y25150D01*
X4933Y24850D01*
X4683Y24600D01*
X4350Y24500D01*
X4017Y24600D01*
X3767Y24850D01*
X3600Y25150D01*
X3475Y25550D01*
X3433Y26000D01*
X3475Y26450D01*
X3600Y26850D01*
X3767Y27150D01*
X4017Y27400D01*
X4350Y27500D01*
M02*
