  0
SECTION
  2
HEADER
  9
$ACADVER
  1
AC1009
  9
$INSBASE
 10
0.000000
 20
0.000000
  9
$LIMMIN
 10
-50.800000
 20
-55.880000
  9
$LIMMAX
 10
482.600000
 20
375.920000
  9
$EXTMIN
 10
-50.800000
 20
-55.880000
  9
$EXTMAX
 10
482.600000
 20
375.920000
  9
$ATTMODE
 70
0
  9
$LUNITS
 70
2
  9
$LUPREC
 70
3
  9
$THICKNESS
 40
0.264160
  0
ENDSEC
  0
SECTION
  2
TABLES
  0
TABLE
  2
LTYPE
 70
1
  0
LTYPE
  3
Solid Line
  2
CONTINUOUS
 70
0
 72
65
 73
0
 40
0.000000
  0
ENDTAB
  0
TABLE
  2
LAYER
 70
6
  0
LAYER
  2
BG_OUTLINE
 70
0
 62
6
  6
CONTINUOUS
  0
LAYER
  2
BO_SILKSCREEN_TOP
 70
0
 62
7
  6
CONTINUOUS
  0
LAYER
  2
PG_SILKSCREEN_TOP
 70
0
 62
7
  6
CONTINUOUS
  0
LAYER
  2
RE_SILKSCREEN_TOP
 70
0
 62
7
  6
CONTINUOUS
  0
LAYER
  2
RE_DISPLAY_TOP
 70
0
 62
142
  6
CONTINUOUS
  0
LAYER
  2
PIN_TOP
 70
0
 62
1
  6
CONTINUOUS
  0
ENDTAB
  0
TABLE
  2
STYLE
 70
1
  0
STYLE
  2
STANDARD
 70
0
 40
0.000000
 41
1.000000
 50
0.000000
 71
0
 42
0.200000
  3
txt
  0
ENDTAB
  0
ENDSEC
  0
SECTION
  2
BLOCKS
  0
BLOCK
  8
0
  2
FIGURE_CIRCLE
 70
0
 10
0.000000
 20
0.000000
  0
CIRCLE
  8
0
 10
0.000000
 20
0.000000
 40
0.500000
  0
ENDBLK
  0
BLOCK
  8
0
  2
FIGURE_SQUARE
 70
0
 10
0.000000
 20
0.000000
  0
POLYLINE
  8
0
 66
1
 70
1
 40
0.000000
 41
0.000000
 39
0.000000
  0
VERTEX
  8
0
 10
-0.500000
 20
-0.500000
 40
0.000000
 41
0.000000
 42
0.000000
  0
VERTEX
  8
0
 10
-0.500000
 20
0.500000
 40
0.000000
 41
0.000000
 42
0.000000
  0
VERTEX
  8
0
 10
0.500000
 20
0.500000
 40
0.000000
 41
0.000000
 42
0.000000
  0
VERTEX
  8
0
 10
0.500000
 20
-0.500000
 40
0.000000
 41
0.000000
 42
0.000000
  0
SEQEND
  0
ENDBLK
  0
BLOCK
  8
0
  2
FIGURE_HEX
 70
0
 10
0.000000
 20
0.000000
  0
POLYLINE
  8
0
 66
1
 70
1
 40
0.000000
 41
0.000000
 39
0.000000
  0
VERTEX
  8
0
 10
-0.500000
 20
0.000000
 40
0.000000
 41
0.000000
 42
0.000000
  0
VERTEX
  8
0
 10
-0.250000
 20
0.500000
 40
0.000000
 41
0.000000
 42
0.000000
  0
VERTEX
  8
0
 10
0.250000
 20
0.500000
 40
0.000000
 41
0.000000
 42
0.000000
  0
VERTEX
  8
0
 10
0.500000
 20
0.000000
 40
0.000000
 41
0.000000
 42
0.000000
  0
VERTEX
  8
0
 10
0.250000
 20
-0.500000
 40
0.000000
 41
0.000000
 42
0.000000
  0
VERTEX
  8
0
 10
-0.250000
 20
-0.500000
 40
0.000000
 41
0.000000
 42
0.000000
  0
SEQEND
  0
ENDBLK
  0
BLOCK
  8
0
  2
FIGURE_OCT
 70
0
 10
0.000000
 20
0.000000
  0
POLYLINE
  8
0
 66
1
 70
1
 40
0.000000
 41
0.000000
 39
0.000000
  0
VERTEX
  8
0
 10
-0.500000
 20
-0.207100
 40
0.000000
 41
0.000000
 42
0.000000
  0
VERTEX
  8
0
 10
-0.500000
 20
0.207100
 40
0.000000
 41
0.000000
 42
0.000000
  0
VERTEX
  8
0
 10
-0.207100
 20
0.500000
 40
0.000000
 41
0.000000
 42
0.000000
  0
VERTEX
  8
0
 10
0.207100
 20
0.500000
 40
0.000000
 41
0.000000
 42
0.000000
  0
VERTEX
  8
0
 10
0.500000
 20
0.207100
 40
0.000000
 41
0.000000
 42
0.000000
  0
VERTEX
  8
0
 10
0.500000
 20
-0.207100
 40
0.000000
 41
0.000000
 42
0.000000
  0
VERTEX
  8
0
 10
0.207100
 20
-0.500000
 40
0.000000
 41
0.000000
 42
0.000000
  0
VERTEX
  8
0
 10
-0.207100
 20
-0.500000
 40
0.000000
 41
0.000000
 42
0.000000
  0
SEQEND
  0
ENDBLK
  0
BLOCK
  8
0
  2
FIGURE_OBLONG
 70
0
 10
0.000000
 20
0.000000
  0
POLYLINE
  8
0
 66
1
 70
1
 40
0.000000
 41
0.000000
 39
0.000000
  0
VERTEX
  8
0
 10
-0.500000
 20
-0.125000
 40
0.000000
 41
0.000000
 42
0.000000
  0
VERTEX
  8
0
 10
-0.500000
 20
0.125000
 40
0.000000
 41
0.000000
 42
0.000000
  0
VERTEX
  8
0
 10
-0.416000
 20
0.375000
 40
0.000000
 41
0.000000
 42
0.000000
  0
VERTEX
  8
0
 10
-0.250000
 20
0.500000
 40
0.000000
 41
0.000000
 42
0.000000
  0
VERTEX
  8
0
 10
0.250000
 20
0.500000
 40
0.000000
 41
0.000000
 42
0.000000
  0
VERTEX
  8
0
 10
0.416000
 20
0.375000
 40
0.000000
 41
0.000000
 42
0.000000
  0
VERTEX
  8
0
 10
0.500000
 20
0.125000
 40
0.000000
 41
0.000000
 42
0.000000
  0
VERTEX
  8
0
 10
0.500000
 20
-0.125000
 40
0.000000
 41
0.000000
 42
0.000000
  0
VERTEX
  8
0
 10
0.416000
 20
-0.375000
 40
0.000000
 41
0.000000
 42
0.000000
  0
VERTEX
  8
0
 10
0.250000
 20
-0.500000
 40
0.000000
 41
0.000000
 42
0.000000
  0
VERTEX
  8
0
 10
-0.250000
 20
-0.500000
 40
0.000000
 41
0.000000
 42
0.000000
  0
VERTEX
  8
0
 10
-0.416000
 20
-0.375000
 40
0.000000
 41
0.000000
 42
0.000000
  0
SEQEND
  0
ENDBLK
  0
BLOCK
  8
0
  2
FIGURE_TRI
 70
0
 10
0.000000
 20
0.000000
  0
POLYLINE
  8
0
 66
1
 70
1
 40
0.000000
 41
0.000000
 39
0.000000
  0
VERTEX
  8
0
 10
-0.500000
 20
-0.500000
 40
0.000000
 41
0.000000
 42
0.000000
  0
VERTEX
  8
0
 10
0.000000
 20
0.500000
 40
0.000000
 41
0.000000
 42
0.000000
  0
VERTEX
  8
0
 10
0.500000
 20
-0.500000
 40
0.000000
 41
0.000000
 42
0.000000
  0
SEQEND
  0
ENDBLK
  0
BLOCK
  8
0
  2
FIGURE_CROSS
 70
0
 10
0.000000
 20
0.000000
  0
POLYLINE
  8
0
 66
1
 70
0
 40
0.000000
 41
0.000000
 39
0.000000
  0
VERTEX
  8
0
 10
-0.500000
 20
0.000000
 40
0.000000
 41
0.000000
 42
0.000000
  0
VERTEX
  8
0
 10
0.500000
 20
0.000000
 40
0.000000
 41
0.000000
 42
0.000000
  0
SEQEND
  0
POLYLINE
  8
0
 66
1
 70
0
 40
0.000000
 41
0.000000
 39
0.000000
  0
VERTEX
  8
0
 10
0.000000
 20
0.500000
 40
0.000000
 41
0.000000
 42
0.000000
  0
VERTEX
  8
0
 10
0.000000
 20
-0.500000
 40
0.000000
 41
0.000000
 42
0.000000
  0
SEQEND
  0
ENDBLK
  0
BLOCK
  8
0
  2
FIGURE_DIAMOND
 70
0
 10
0.000000
 20
0.000000
  0
POLYLINE
  8
0
 66
1
 70
1
 40
0.000000
 41
0.000000
 39
0.000000
  0
VERTEX
  8
0
 10
-0.500000
 20
0.000000
 40
0.000000
 41
0.000000
 42
0.000000
  0
VERTEX
  8
0
 10
0.000000
 20
0.500000
 40
0.000000
 41
0.000000
 42
0.000000
  0
VERTEX
  8
0
 10
0.500000
 20
0.000000
 40
0.000000
 41
0.000000
 42
0.000000
  0
VERTEX
  8
0
 10
0.000000
 20
-0.500000
 40
0.000000
 41
0.000000
 42
0.000000
  0
SEQEND
  0
ENDBLK
  0
ENDSEC
  0
SECTION
  2
ENTITIES
  0
POLYLINE
  8
PIN_TOP
 66
1
 70
1
 40
0.000000
 41
0.000000
 39
0.000000
  0
VERTEX
  8
PIN_TOP
 10
11.696700
 20
0.520700
 40
0.000000
 41
0.000000
 42
0.000000
  0
VERTEX
  8
PIN_TOP
 10
10.909300
 20
0.520700
 40
0.000000
 41
0.000000
 42
0.000000
  0
VERTEX
  8
PIN_TOP
 10
10.909300
 20
1.435100
 40
0.000000
 41
0.000000
 42
0.000000
  0
VERTEX
  8
PIN_TOP
 10
11.696700
 20
1.435100
 40
0.000000
 41
0.000000
 42
0.000000
  0
SEQEND
  0
POLYLINE
  8
PIN_TOP
 66
1
 70
1
 40
0.000000
 41
0.000000
 39
0.000000
  0
VERTEX
  8
PIN_TOP
 10
11.696700
 20
2.120900
 40
0.000000
 41
0.000000
 42
0.000000
  0
VERTEX
  8
PIN_TOP
 10
10.909300
 20
2.120900
 40
0.000000
 41
0.000000
 42
0.000000
  0
VERTEX
  8
PIN_TOP
 10
10.909300
 20
3.035300
 40
0.000000
 41
0.000000
 42
0.000000
  0
VERTEX
  8
PIN_TOP
 10
11.696700
 20
3.035300
 40
0.000000
 41
0.000000
 42
0.000000
  0
SEQEND
  0
POLYLINE
  8
PG_SILKSCREEN_TOP
 66
1
 70
0
 40
0.000000
 41
0.000000
 39
0.000000
  0
VERTEX
  8
PG_SILKSCREEN_TOP
 10
10.668000
 20
0.254000
 40
0.127000
 41
0.127000
 42
0.000000
  0
VERTEX
  8
PG_SILKSCREEN_TOP
 10
10.668000
 20
3.302000
 40
0.127000
 41
0.127000
 42
0.000000
  0
VERTEX
  8
PG_SILKSCREEN_TOP
 10
11.938000
 20
3.302000
 40
0.127000
 41
0.127000
 42
0.000000
  0
VERTEX
  8
PG_SILKSCREEN_TOP
 10
11.938000
 20
0.254000
 40
0.127000
 41
0.127000
 42
0.000000
  0
VERTEX
  8
PG_SILKSCREEN_TOP
 10
10.668000
 20
0.254000
 40
0.127000
 41
0.127000
 42
0.000000
  0
SEQEND
  0
TEXT
  8
RE_SILKSCREEN_TOP
 10
16.510000
 20
3.302000
 11
0.000000
 21
0.000000
 40
0.762000
 41
1.266667
 50
0.000000
  7
STANDARD
 71
0
 72
0
  1
R5
 73
0
  0
POLYLINE
  8
PIN_TOP
 66
1
 70
1
 40
0.000000
 41
0.000000
 39
0.000000
  0
VERTEX
  8
PIN_TOP
 10
10.426700
 20
0.520700
 40
0.000000
 41
0.000000
 42
0.000000
  0
VERTEX
  8
PIN_TOP
 10
9.639300
 20
0.520700
 40
0.000000
 41
0.000000
 42
0.000000
  0
VERTEX
  8
PIN_TOP
 10
9.639300
 20
1.435100
 40
0.000000
 41
0.000000
 42
0.000000
  0
VERTEX
  8
PIN_TOP
 10
10.426700
 20
1.435100
 40
0.000000
 41
0.000000
 42
0.000000
  0
SEQEND
  0
POLYLINE
  8
PIN_TOP
 66
1
 70
1
 40
0.000000
 41
0.000000
 39
0.000000
  0
VERTEX
  8
PIN_TOP
 10
10.426700
 20
2.120900
 40
0.000000
 41
0.000000
 42
0.000000
  0
VERTEX
  8
PIN_TOP
 10
9.639300
 20
2.120900
 40
0.000000
 41
0.000000
 42
0.000000
  0
VERTEX
  8
PIN_TOP
 10
9.639300
 20
3.035300
 40
0.000000
 41
0.000000
 42
0.000000
  0
VERTEX
  8
PIN_TOP
 10
10.426700
 20
3.035300
 40
0.000000
 41
0.000000
 42
0.000000
  0
SEQEND
  0
POLYLINE
  8
PG_SILKSCREEN_TOP
 66
1
 70
0
 40
0.000000
 41
0.000000
 39
0.000000
  0
VERTEX
  8
PG_SILKSCREEN_TOP
 10
9.398000
 20
0.254000
 40
0.127000
 41
0.127000
 42
0.000000
  0
VERTEX
  8
PG_SILKSCREEN_TOP
 10
9.398000
 20
3.302000
 40
0.127000
 41
0.127000
 42
0.000000
  0
VERTEX
  8
PG_SILKSCREEN_TOP
 10
10.668000
 20
3.302000
 40
0.127000
 41
0.127000
 42
0.000000
  0
VERTEX
  8
PG_SILKSCREEN_TOP
 10
10.668000
 20
0.254000
 40
0.127000
 41
0.127000
 42
0.000000
  0
VERTEX
  8
PG_SILKSCREEN_TOP
 10
9.398000
 20
0.254000
 40
0.127000
 41
0.127000
 42
0.000000
  0
SEQEND
  0
TEXT
  8
RE_SILKSCREEN_TOP
 10
16.510000
 20
4.445000
 11
0.000000
 21
0.000000
 40
0.762000
 41
1.266667
 50
0.000000
  7
STANDARD
 71
0
 72
0
  1
R4
 73
0
  0
POLYLINE
  8
PIN_TOP
 66
1
 70
1
 40
0.000000
 41
0.000000
 39
0.000000
  0
VERTEX
  8
PIN_TOP
 10
10.426700
 20
8.648700
 40
0.000000
 41
0.000000
 42
0.000000
  0
VERTEX
  8
PIN_TOP
 10
9.639300
 20
8.648700
 40
0.000000
 41
0.000000
 42
0.000000
  0
VERTEX
  8
PIN_TOP
 10
9.639300
 20
9.563100
 40
0.000000
 41
0.000000
 42
0.000000
  0
VERTEX
  8
PIN_TOP
 10
10.426700
 20
9.563100
 40
0.000000
 41
0.000000
 42
0.000000
  0
SEQEND
  0
POLYLINE
  8
PIN_TOP
 66
1
 70
1
 40
0.000000
 41
0.000000
 39
0.000000
  0
VERTEX
  8
PIN_TOP
 10
10.426700
 20
10.248900
 40
0.000000
 41
0.000000
 42
0.000000
  0
VERTEX
  8
PIN_TOP
 10
9.639300
 20
10.248900
 40
0.000000
 41
0.000000
 42
0.000000
  0
VERTEX
  8
PIN_TOP
 10
9.639300
 20
11.163300
 40
0.000000
 41
0.000000
 42
0.000000
  0
VERTEX
  8
PIN_TOP
 10
10.426700
 20
11.163300
 40
0.000000
 41
0.000000
 42
0.000000
  0
SEQEND
  0
POLYLINE
  8
PG_SILKSCREEN_TOP
 66
1
 70
0
 40
0.000000
 41
0.000000
 39
0.000000
  0
VERTEX
  8
PG_SILKSCREEN_TOP
 10
9.398000
 20
8.382000
 40
0.127000
 41
0.127000
 42
0.000000
  0
VERTEX
  8
PG_SILKSCREEN_TOP
 10
9.398000
 20
11.430000
 40
0.127000
 41
0.127000
 42
0.000000
  0
VERTEX
  8
PG_SILKSCREEN_TOP
 10
10.668000
 20
11.430000
 40
0.127000
 41
0.127000
 42
0.000000
  0
VERTEX
  8
PG_SILKSCREEN_TOP
 10
10.668000
 20
8.382000
 40
0.127000
 41
0.127000
 42
0.000000
  0
VERTEX
  8
PG_SILKSCREEN_TOP
 10
9.398000
 20
8.382000
 40
0.127000
 41
0.127000
 42
0.000000
  0
SEQEND
  0
TEXT
  8
RE_SILKSCREEN_TOP
 10
13.462000
 20
9.271000
 11
0.000000
 21
0.000000
 40
0.762000
 41
1.266667
 50
90.000000
  7
STANDARD
 71
0
 72
0
  1
R3
 73
0
  0
POLYLINE
  8
PIN_TOP
 66
1
 70
1
 40
0.000000
 41
0.000000
 39
0.000000
  0
VERTEX
  8
PIN_TOP
 10
9.156700
 20
8.648700
 40
0.000000
 41
0.000000
 42
0.000000
  0
VERTEX
  8
PIN_TOP
 10
8.369300
 20
8.648700
 40
0.000000
 41
0.000000
 42
0.000000
  0
VERTEX
  8
PIN_TOP
 10
8.369300
 20
9.563100
 40
0.000000
 41
0.000000
 42
0.000000
  0
VERTEX
  8
PIN_TOP
 10
9.156700
 20
9.563100
 40
0.000000
 41
0.000000
 42
0.000000
  0
SEQEND
  0
POLYLINE
  8
PIN_TOP
 66
1
 70
1
 40
0.000000
 41
0.000000
 39
0.000000
  0
VERTEX
  8
PIN_TOP
 10
9.156700
 20
10.248900
 40
0.000000
 41
0.000000
 42
0.000000
  0
VERTEX
  8
PIN_TOP
 10
8.369300
 20
10.248900
 40
0.000000
 41
0.000000
 42
0.000000
  0
VERTEX
  8
PIN_TOP
 10
8.369300
 20
11.163300
 40
0.000000
 41
0.000000
 42
0.000000
  0
VERTEX
  8
PIN_TOP
 10
9.156700
 20
11.163300
 40
0.000000
 41
0.000000
 42
0.000000
  0
SEQEND
  0
POLYLINE
  8
PG_SILKSCREEN_TOP
 66
1
 70
0
 40
0.000000
 41
0.000000
 39
0.000000
  0
VERTEX
  8
PG_SILKSCREEN_TOP
 10
8.128000
 20
8.382000
 40
0.127000
 41
0.127000
 42
0.000000
  0
VERTEX
  8
PG_SILKSCREEN_TOP
 10
8.128000
 20
11.430000
 40
0.127000
 41
0.127000
 42
0.000000
  0
VERTEX
  8
PG_SILKSCREEN_TOP
 10
9.398000
 20
11.430000
 40
0.127000
 41
0.127000
 42
0.000000
  0
VERTEX
  8
PG_SILKSCREEN_TOP
 10
9.398000
 20
8.382000
 40
0.127000
 41
0.127000
 42
0.000000
  0
VERTEX
  8
PG_SILKSCREEN_TOP
 10
8.128000
 20
8.382000
 40
0.127000
 41
0.127000
 42
0.000000
  0
SEQEND
  0
TEXT
  8
RE_SILKSCREEN_TOP
 10
7.620000
 20
9.271000
 11
0.000000
 21
0.000000
 40
0.762000
 41
1.266667
 50
90.000000
  7
STANDARD
 71
0
 72
0
  1
R2
 73
0
  0
POLYLINE
  8
PIN_TOP
 66
1
 70
1
 40
0.000000
 41
0.000000
 39
0.000000
  0
VERTEX
  8
PIN_TOP
 10
14.236700
 20
0.520700
 40
0.000000
 41
0.000000
 42
0.000000
  0
VERTEX
  8
PIN_TOP
 10
13.449300
 20
0.520700
 40
0.000000
 41
0.000000
 42
0.000000
  0
VERTEX
  8
PIN_TOP
 10
13.449300
 20
1.435100
 40
0.000000
 41
0.000000
 42
0.000000
  0
VERTEX
  8
PIN_TOP
 10
14.236700
 20
1.435100
 40
0.000000
 41
0.000000
 42
0.000000
  0
SEQEND
  0
POLYLINE
  8
PIN_TOP
 66
1
 70
1
 40
0.000000
 41
0.000000
 39
0.000000
  0
VERTEX
  8
PIN_TOP
 10
14.236700
 20
2.120900
 40
0.000000
 41
0.000000
 42
0.000000
  0
VERTEX
  8
PIN_TOP
 10
13.449300
 20
2.120900
 40
0.000000
 41
0.000000
 42
0.000000
  0
VERTEX
  8
PIN_TOP
 10
13.449300
 20
3.035300
 40
0.000000
 41
0.000000
 42
0.000000
  0
VERTEX
  8
PIN_TOP
 10
14.236700
 20
3.035300
 40
0.000000
 41
0.000000
 42
0.000000
  0
SEQEND
  0
POLYLINE
  8
PG_SILKSCREEN_TOP
 66
1
 70
0
 40
0.000000
 41
0.000000
 39
0.000000
  0
VERTEX
  8
PG_SILKSCREEN_TOP
 10
13.208000
 20
0.254000
 40
0.127000
 41
0.127000
 42
0.000000
  0
VERTEX
  8
PG_SILKSCREEN_TOP
 10
13.208000
 20
3.302000
 40
0.127000
 41
0.127000
 42
0.000000
  0
VERTEX
  8
PG_SILKSCREEN_TOP
 10
14.478000
 20
3.302000
 40
0.127000
 41
0.127000
 42
0.000000
  0
VERTEX
  8
PG_SILKSCREEN_TOP
 10
14.478000
 20
0.254000
 40
0.127000
 41
0.127000
 42
0.000000
  0
VERTEX
  8
PG_SILKSCREEN_TOP
 10
13.208000
 20
0.254000
 40
0.127000
 41
0.127000
 42
0.000000
  0
SEQEND
  0
TEXT
  8
RE_SILKSCREEN_TOP
 10
16.510000
 20
1.016000
 11
0.000000
 21
0.000000
 40
0.762000
 41
1.266667
 50
0.000000
  7
STANDARD
 71
0
 72
0
  1
R1
 73
0
  0
POLYLINE
  8
PIN_TOP
 66
1
 70
1
 40
0.000000
 41
0.000000
 39
0.000000
  0
VERTEX
  8
PIN_TOP
 10
14.414500
 20
4.165600
 40
0.000000
 41
0.000000
 42
0.000000
  0
VERTEX
  8
PIN_TOP
 10
14.414500
 20
4.978400
 40
0.000000
 41
0.000000
 42
0.000000
  0
VERTEX
  8
PIN_TOP
 10
15.303500
 20
4.978400
 40
0.000000
 41
0.000000
 42
0.000000
  0
VERTEX
  8
PIN_TOP
 10
15.303500
 20
4.165600
 40
0.000000
 41
0.000000
 42
0.000000
  0
SEQEND
  0
POLYLINE
  8
PIN_TOP
 66
1
 70
1
 40
0.000000
 41
0.000000
 39
0.000000
  0
VERTEX
  8
PIN_TOP
 10
12.890500
 20
4.165600
 40
0.000000
 41
0.000000
 42
0.000000
  0
VERTEX
  8
PIN_TOP
 10
12.890500
 20
4.978400
 40
0.000000
 41
0.000000
 42
0.000000
  0
VERTEX
  8
PIN_TOP
 10
13.779500
 20
4.978400
 40
0.000000
 41
0.000000
 42
0.000000
  0
VERTEX
  8
PIN_TOP
 10
13.779500
 20
4.165600
 40
0.000000
 41
0.000000
 42
0.000000
  0
SEQEND
  0
POLYLINE
  8
PG_SILKSCREEN_TOP
 66
1
 70
0
 40
0.000000
 41
0.000000
 39
0.000000
  0
VERTEX
  8
PG_SILKSCREEN_TOP
 10
14.351000
 20
5.207000
 40
0.127000
 41
0.127000
 42
0.000000
  0
VERTEX
  8
PG_SILKSCREEN_TOP
 10
15.494000
 20
5.207000
 40
0.127000
 41
0.127000
 42
0.000000
  0
VERTEX
  8
PG_SILKSCREEN_TOP
 10
15.494000
 20
3.937000
 40
0.127000
 41
0.127000
 42
0.000000
  0
VERTEX
  8
PG_SILKSCREEN_TOP
 10
14.351000
 20
3.937000
 40
0.127000
 41
0.127000
 42
0.000000
  0
SEQEND
  0
POLYLINE
  8
PG_SILKSCREEN_TOP
 66
1
 70
0
 40
0.000000
 41
0.000000
 39
0.000000
  0
VERTEX
  8
PG_SILKSCREEN_TOP
 10
13.843000
 20
3.937000
 40
0.127000
 41
0.127000
 42
0.000000
  0
VERTEX
  8
PG_SILKSCREEN_TOP
 10
12.700000
 20
3.937000
 40
0.127000
 41
0.127000
 42
0.000000
  0
VERTEX
  8
PG_SILKSCREEN_TOP
 10
12.700000
 20
5.207000
 40
0.127000
 41
0.127000
 42
0.000000
  0
SEQEND
  0
POLYLINE
  8
PG_SILKSCREEN_TOP
 66
1
 70
0
 40
0.000000
 41
0.000000
 39
0.000000
  0
VERTEX
  8
PG_SILKSCREEN_TOP
 10
14.173200
 20
4.851400
 40
0.127000
 41
0.127000
 42
0.000000
  0
VERTEX
  8
PG_SILKSCREEN_TOP
 10
14.173200
 20
4.267200
 40
0.127000
 41
0.127000
 42
0.000000
  0
SEQEND
  0
POLYLINE
  8
PG_SILKSCREEN_TOP
 66
1
 70
0
 40
0.000000
 41
0.000000
 39
0.000000
  0
VERTEX
  8
PG_SILKSCREEN_TOP
 10
13.995400
 20
4.851400
 40
0.127000
 41
0.127000
 42
0.000000
  0
VERTEX
  8
PG_SILKSCREEN_TOP
 10
13.995400
 20
4.267200
 40
0.127000
 41
0.127000
 42
0.000000
  0
SEQEND
  0
POLYLINE
  8
PG_SILKSCREEN_TOP
 66
1
 70
0
 40
0.000000
 41
0.000000
 39
0.000000
  0
VERTEX
  8
PG_SILKSCREEN_TOP
 10
12.700000
 20
5.207000
 40
0.127000
 41
0.127000
 42
0.000000
  0
VERTEX
  8
PG_SILKSCREEN_TOP
 10
13.843000
 20
5.207000
 40
0.127000
 41
0.127000
 42
0.000000
  0
SEQEND
  0
TEXT
  8
RE_SILKSCREEN_TOP
 10
13.208000
 20
5.461000
 11
0.000000
 21
0.000000
 40
0.762000
 41
1.266667
 50
0.000000
  7
STANDARD
 71
0
 72
0
  1
C1
 73
0
  0
POLYLINE
  8
PIN_TOP
 66
1
 70
1
 40
0.000000
 41
0.000000
 39
0.000000
  0
VERTEX
  8
PIN_TOP
 10
8.356600
 20
1.460500
 40
0.000000
 41
0.000000
 42
0.000000
  0
VERTEX
  8
PIN_TOP
 10
9.169400
 20
1.460500
 40
0.000000
 41
0.000000
 42
0.000000
  0
VERTEX
  8
PIN_TOP
 10
9.169400
 20
0.571500
 40
0.000000
 41
0.000000
 42
0.000000
  0
VERTEX
  8
PIN_TOP
 10
8.356600
 20
0.571500
 40
0.000000
 41
0.000000
 42
0.000000
  0
SEQEND
  0
POLYLINE
  8
PIN_TOP
 66
1
 70
1
 40
0.000000
 41
0.000000
 39
0.000000
  0
VERTEX
  8
PIN_TOP
 10
8.356600
 20
2.984500
 40
0.000000
 41
0.000000
 42
0.000000
  0
VERTEX
  8
PIN_TOP
 10
9.169400
 20
2.984500
 40
0.000000
 41
0.000000
 42
0.000000
  0
VERTEX
  8
PIN_TOP
 10
9.169400
 20
2.095500
 40
0.000000
 41
0.000000
 42
0.000000
  0
VERTEX
  8
PIN_TOP
 10
8.356600
 20
2.095500
 40
0.000000
 41
0.000000
 42
0.000000
  0
SEQEND
  0
POLYLINE
  8
PG_SILKSCREEN_TOP
 66
1
 70
0
 40
0.000000
 41
0.000000
 39
0.000000
  0
VERTEX
  8
PG_SILKSCREEN_TOP
 10
9.398000
 20
1.524000
 40
0.127000
 41
0.127000
 42
0.000000
  0
VERTEX
  8
PG_SILKSCREEN_TOP
 10
9.398000
 20
0.381000
 40
0.127000
 41
0.127000
 42
0.000000
  0
VERTEX
  8
PG_SILKSCREEN_TOP
 10
8.128000
 20
0.381000
 40
0.127000
 41
0.127000
 42
0.000000
  0
VERTEX
  8
PG_SILKSCREEN_TOP
 10
8.128000
 20
1.524000
 40
0.127000
 41
0.127000
 42
0.000000
  0
SEQEND
  0
POLYLINE
  8
PG_SILKSCREEN_TOP
 66
1
 70
0
 40
0.000000
 41
0.000000
 39
0.000000
  0
VERTEX
  8
PG_SILKSCREEN_TOP
 10
8.128000
 20
2.032000
 40
0.127000
 41
0.127000
 42
0.000000
  0
VERTEX
  8
PG_SILKSCREEN_TOP
 10
8.128000
 20
3.175000
 40
0.127000
 41
0.127000
 42
0.000000
  0
VERTEX
  8
PG_SILKSCREEN_TOP
 10
9.398000
 20
3.175000
 40
0.127000
 41
0.127000
 42
0.000000
  0
SEQEND
  0
POLYLINE
  8
PG_SILKSCREEN_TOP
 66
1
 70
0
 40
0.000000
 41
0.000000
 39
0.000000
  0
VERTEX
  8
PG_SILKSCREEN_TOP
 10
9.042400
 20
1.701800
 40
0.127000
 41
0.127000
 42
0.000000
  0
VERTEX
  8
PG_SILKSCREEN_TOP
 10
8.458200
 20
1.701800
 40
0.127000
 41
0.127000
 42
0.000000
  0
SEQEND
  0
POLYLINE
  8
PG_SILKSCREEN_TOP
 66
1
 70
0
 40
0.000000
 41
0.000000
 39
0.000000
  0
VERTEX
  8
PG_SILKSCREEN_TOP
 10
9.042400
 20
1.879600
 40
0.127000
 41
0.127000
 42
0.000000
  0
VERTEX
  8
PG_SILKSCREEN_TOP
 10
8.458200
 20
1.879600
 40
0.127000
 41
0.127000
 42
0.000000
  0
SEQEND
  0
POLYLINE
  8
PG_SILKSCREEN_TOP
 66
1
 70
0
 40
0.000000
 41
0.000000
 39
0.000000
  0
VERTEX
  8
PG_SILKSCREEN_TOP
 10
9.398000
 20
3.175000
 40
0.127000
 41
0.127000
 42
0.000000
  0
VERTEX
  8
PG_SILKSCREEN_TOP
 10
9.398000
 20
2.032000
 40
0.127000
 41
0.127000
 42
0.000000
  0
SEQEND
  0
TEXT
  8
RE_SILKSCREEN_TOP
 10
16.510000
 20
5.588000
 11
0.000000
 21
0.000000
 40
0.762000
 41
1.266667
 50
0.000000
  7
STANDARD
 71
0
 72
0
  1
C2
 73
0
  0
POLYLINE
  8
PIN_TOP
 66
1
 70
1
 40
0.000000
 41
0.000000
 39
0.000000
  0
VERTEX
  8
PIN_TOP
 10
12.166600
 20
1.460500
 40
0.000000
 41
0.000000
 42
0.000000
  0
VERTEX
  8
PIN_TOP
 10
12.979400
 20
1.460500
 40
0.000000
 41
0.000000
 42
0.000000
  0
VERTEX
  8
PIN_TOP
 10
12.979400
 20
0.571500
 40
0.000000
 41
0.000000
 42
0.000000
  0
VERTEX
  8
PIN_TOP
 10
12.166600
 20
0.571500
 40
0.000000
 41
0.000000
 42
0.000000
  0
SEQEND
  0
POLYLINE
  8
PIN_TOP
 66
1
 70
1
 40
0.000000
 41
0.000000
 39
0.000000
  0
VERTEX
  8
PIN_TOP
 10
12.166600
 20
2.984500
 40
0.000000
 41
0.000000
 42
0.000000
  0
VERTEX
  8
PIN_TOP
 10
12.979400
 20
2.984500
 40
0.000000
 41
0.000000
 42
0.000000
  0
VERTEX
  8
PIN_TOP
 10
12.979400
 20
2.095500
 40
0.000000
 41
0.000000
 42
0.000000
  0
VERTEX
  8
PIN_TOP
 10
12.166600
 20
2.095500
 40
0.000000
 41
0.000000
 42
0.000000
  0
SEQEND
  0
POLYLINE
  8
PG_SILKSCREEN_TOP
 66
1
 70
0
 40
0.000000
 41
0.000000
 39
0.000000
  0
VERTEX
  8
PG_SILKSCREEN_TOP
 10
13.208000
 20
1.524000
 40
0.127000
 41
0.127000
 42
0.000000
  0
VERTEX
  8
PG_SILKSCREEN_TOP
 10
13.208000
 20
0.381000
 40
0.127000
 41
0.127000
 42
0.000000
  0
VERTEX
  8
PG_SILKSCREEN_TOP
 10
11.938000
 20
0.381000
 40
0.127000
 41
0.127000
 42
0.000000
  0
VERTEX
  8
PG_SILKSCREEN_TOP
 10
11.938000
 20
1.524000
 40
0.127000
 41
0.127000
 42
0.000000
  0
SEQEND
  0
POLYLINE
  8
PG_SILKSCREEN_TOP
 66
1
 70
0
 40
0.000000
 41
0.000000
 39
0.000000
  0
VERTEX
  8
PG_SILKSCREEN_TOP
 10
11.938000
 20
2.032000
 40
0.127000
 41
0.127000
 42
0.000000
  0
VERTEX
  8
PG_SILKSCREEN_TOP
 10
11.938000
 20
3.175000
 40
0.127000
 41
0.127000
 42
0.000000
  0
VERTEX
  8
PG_SILKSCREEN_TOP
 10
13.208000
 20
3.175000
 40
0.127000
 41
0.127000
 42
0.000000
  0
SEQEND
  0
POLYLINE
  8
PG_SILKSCREEN_TOP
 66
1
 70
0
 40
0.000000
 41
0.000000
 39
0.000000
  0
VERTEX
  8
PG_SILKSCREEN_TOP
 10
12.852400
 20
1.701800
 40
0.127000
 41
0.127000
 42
0.000000
  0
VERTEX
  8
PG_SILKSCREEN_TOP
 10
12.268200
 20
1.701800
 40
0.127000
 41
0.127000
 42
0.000000
  0
SEQEND
  0
POLYLINE
  8
PG_SILKSCREEN_TOP
 66
1
 70
0
 40
0.000000
 41
0.000000
 39
0.000000
  0
VERTEX
  8
PG_SILKSCREEN_TOP
 10
12.852400
 20
1.879600
 40
0.127000
 41
0.127000
 42
0.000000
  0
VERTEX
  8
PG_SILKSCREEN_TOP
 10
12.268200
 20
1.879600
 40
0.127000
 41
0.127000
 42
0.000000
  0
SEQEND
  0
POLYLINE
  8
PG_SILKSCREEN_TOP
 66
1
 70
0
 40
0.000000
 41
0.000000
 39
0.000000
  0
VERTEX
  8
PG_SILKSCREEN_TOP
 10
13.208000
 20
3.175000
 40
0.127000
 41
0.127000
 42
0.000000
  0
VERTEX
  8
PG_SILKSCREEN_TOP
 10
13.208000
 20
2.032000
 40
0.127000
 41
0.127000
 42
0.000000
  0
SEQEND
  0
TEXT
  8
RE_SILKSCREEN_TOP
 10
16.510000
 20
2.159000
 11
0.000000
 21
0.000000
 40
0.762000
 41
1.266667
 50
0.000000
  7
STANDARD
 71
0
 72
0
  1
C3
 73
0
  0
POLYLINE
  8
PIN_TOP
 66
1
 70
1
 40
0.000000
 41
0.000000
 39
0.000000
  0
VERTEX
  8
PIN_TOP
 10
5.816600
 20
1.460500
 40
0.000000
 41
0.000000
 42
0.000000
  0
VERTEX
  8
PIN_TOP
 10
6.629400
 20
1.460500
 40
0.000000
 41
0.000000
 42
0.000000
  0
VERTEX
  8
PIN_TOP
 10
6.629400
 20
0.571500
 40
0.000000
 41
0.000000
 42
0.000000
  0
VERTEX
  8
PIN_TOP
 10
5.816600
 20
0.571500
 40
0.000000
 41
0.000000
 42
0.000000
  0
SEQEND
  0
POLYLINE
  8
PIN_TOP
 66
1
 70
1
 40
0.000000
 41
0.000000
 39
0.000000
  0
VERTEX
  8
PIN_TOP
 10
5.816600
 20
2.984500
 40
0.000000
 41
0.000000
 42
0.000000
  0
VERTEX
  8
PIN_TOP
 10
6.629400
 20
2.984500
 40
0.000000
 41
0.000000
 42
0.000000
  0
VERTEX
  8
PIN_TOP
 10
6.629400
 20
2.095500
 40
0.000000
 41
0.000000
 42
0.000000
  0
VERTEX
  8
PIN_TOP
 10
5.816600
 20
2.095500
 40
0.000000
 41
0.000000
 42
0.000000
  0
SEQEND
  0
POLYLINE
  8
PG_SILKSCREEN_TOP
 66
1
 70
0
 40
0.000000
 41
0.000000
 39
0.000000
  0
VERTEX
  8
PG_SILKSCREEN_TOP
 10
6.858000
 20
1.524000
 40
0.127000
 41
0.127000
 42
0.000000
  0
VERTEX
  8
PG_SILKSCREEN_TOP
 10
6.858000
 20
0.381000
 40
0.127000
 41
0.127000
 42
0.000000
  0
VERTEX
  8
PG_SILKSCREEN_TOP
 10
5.588000
 20
0.381000
 40
0.127000
 41
0.127000
 42
0.000000
  0
VERTEX
  8
PG_SILKSCREEN_TOP
 10
5.588000
 20
1.524000
 40
0.127000
 41
0.127000
 42
0.000000
  0
SEQEND
  0
POLYLINE
  8
PG_SILKSCREEN_TOP
 66
1
 70
0
 40
0.000000
 41
0.000000
 39
0.000000
  0
VERTEX
  8
PG_SILKSCREEN_TOP
 10
5.588000
 20
2.032000
 40
0.127000
 41
0.127000
 42
0.000000
  0
VERTEX
  8
PG_SILKSCREEN_TOP
 10
5.588000
 20
3.175000
 40
0.127000
 41
0.127000
 42
0.000000
  0
VERTEX
  8
PG_SILKSCREEN_TOP
 10
6.858000
 20
3.175000
 40
0.127000
 41
0.127000
 42
0.000000
  0
SEQEND
  0
POLYLINE
  8
PG_SILKSCREEN_TOP
 66
1
 70
0
 40
0.000000
 41
0.000000
 39
0.000000
  0
VERTEX
  8
PG_SILKSCREEN_TOP
 10
6.502400
 20
1.701800
 40
0.127000
 41
0.127000
 42
0.000000
  0
VERTEX
  8
PG_SILKSCREEN_TOP
 10
5.918200
 20
1.701800
 40
0.127000
 41
0.127000
 42
0.000000
  0
SEQEND
  0
POLYLINE
  8
PG_SILKSCREEN_TOP
 66
1
 70
0
 40
0.000000
 41
0.000000
 39
0.000000
  0
VERTEX
  8
PG_SILKSCREEN_TOP
 10
6.502400
 20
1.879600
 40
0.127000
 41
0.127000
 42
0.000000
  0
VERTEX
  8
PG_SILKSCREEN_TOP
 10
5.918200
 20
1.879600
 40
0.127000
 41
0.127000
 42
0.000000
  0
SEQEND
  0
POLYLINE
  8
PG_SILKSCREEN_TOP
 66
1
 70
0
 40
0.000000
 41
0.000000
 39
0.000000
  0
VERTEX
  8
PG_SILKSCREEN_TOP
 10
6.858000
 20
3.175000
 40
0.127000
 41
0.127000
 42
0.000000
  0
VERTEX
  8
PG_SILKSCREEN_TOP
 10
6.858000
 20
2.032000
 40
0.127000
 41
0.127000
 42
0.000000
  0
SEQEND
  0
TEXT
  8
RE_SILKSCREEN_TOP
 10
16.510000
 20
7.874000
 11
0.000000
 21
0.000000
 40
0.762000
 41
1.266667
 50
0.000000
  7
STANDARD
 71
0
 72
0
  1
C6
 73
0
  0
POLYLINE
  8
PIN_TOP
 66
1
 70
1
 40
0.000000
 41
0.000000
 39
0.000000
  0
VERTEX
  8
PIN_TOP
 10
2.603500
 20
10.388600
 40
0.000000
 41
0.000000
 42
0.000000
  0
VERTEX
  8
PIN_TOP
 10
2.603500
 20
11.201400
 40
0.000000
 41
0.000000
 42
0.000000
  0
VERTEX
  8
PIN_TOP
 10
3.492500
 20
11.201400
 40
0.000000
 41
0.000000
 42
0.000000
  0
VERTEX
  8
PIN_TOP
 10
3.492500
 20
10.388600
 40
0.000000
 41
0.000000
 42
0.000000
  0
SEQEND
  0
POLYLINE
  8
PIN_TOP
 66
1
 70
1
 40
0.000000
 41
0.000000
 39
0.000000
  0
VERTEX
  8
PIN_TOP
 10
1.079500
 20
10.388600
 40
0.000000
 41
0.000000
 42
0.000000
  0
VERTEX
  8
PIN_TOP
 10
1.079500
 20
11.201400
 40
0.000000
 41
0.000000
 42
0.000000
  0
VERTEX
  8
PIN_TOP
 10
1.968500
 20
11.201400
 40
0.000000
 41
0.000000
 42
0.000000
  0
VERTEX
  8
PIN_TOP
 10
1.968500
 20
10.388600
 40
0.000000
 41
0.000000
 42
0.000000
  0
SEQEND
  0
POLYLINE
  8
PG_SILKSCREEN_TOP
 66
1
 70
0
 40
0.000000
 41
0.000000
 39
0.000000
  0
VERTEX
  8
PG_SILKSCREEN_TOP
 10
2.540000
 20
11.430000
 40
0.127000
 41
0.127000
 42
0.000000
  0
VERTEX
  8
PG_SILKSCREEN_TOP
 10
3.683000
 20
11.430000
 40
0.127000
 41
0.127000
 42
0.000000
  0
VERTEX
  8
PG_SILKSCREEN_TOP
 10
3.683000
 20
10.160000
 40
0.127000
 41
0.127000
 42
0.000000
  0
VERTEX
  8
PG_SILKSCREEN_TOP
 10
2.540000
 20
10.160000
 40
0.127000
 41
0.127000
 42
0.000000
  0
SEQEND
  0
POLYLINE
  8
PG_SILKSCREEN_TOP
 66
1
 70
0
 40
0.000000
 41
0.000000
 39
0.000000
  0
VERTEX
  8
PG_SILKSCREEN_TOP
 10
2.032000
 20
10.160000
 40
0.127000
 41
0.127000
 42
0.000000
  0
VERTEX
  8
PG_SILKSCREEN_TOP
 10
0.889000
 20
10.160000
 40
0.127000
 41
0.127000
 42
0.000000
  0
VERTEX
  8
PG_SILKSCREEN_TOP
 10
0.889000
 20
11.430000
 40
0.127000
 41
0.127000
 42
0.000000
  0
SEQEND
  0
POLYLINE
  8
PG_SILKSCREEN_TOP
 66
1
 70
0
 40
0.000000
 41
0.000000
 39
0.000000
  0
VERTEX
  8
PG_SILKSCREEN_TOP
 10
2.362200
 20
11.074400
 40
0.127000
 41
0.127000
 42
0.000000
  0
VERTEX
  8
PG_SILKSCREEN_TOP
 10
2.362200
 20
10.490200
 40
0.127000
 41
0.127000
 42
0.000000
  0
SEQEND
  0
POLYLINE
  8
PG_SILKSCREEN_TOP
 66
1
 70
0
 40
0.000000
 41
0.000000
 39
0.000000
  0
VERTEX
  8
PG_SILKSCREEN_TOP
 10
2.184400
 20
11.074400
 40
0.127000
 41
0.127000
 42
0.000000
  0
VERTEX
  8
PG_SILKSCREEN_TOP
 10
2.184400
 20
10.490200
 40
0.127000
 41
0.127000
 42
0.000000
  0
SEQEND
  0
POLYLINE
  8
PG_SILKSCREEN_TOP
 66
1
 70
0
 40
0.000000
 41
0.000000
 39
0.000000
  0
VERTEX
  8
PG_SILKSCREEN_TOP
 10
0.889000
 20
11.430000
 40
0.127000
 41
0.127000
 42
0.000000
  0
VERTEX
  8
PG_SILKSCREEN_TOP
 10
2.032000
 20
11.430000
 40
0.127000
 41
0.127000
 42
0.000000
  0
SEQEND
  0
TEXT
  8
RE_SILKSCREEN_TOP
 10
3.937000
 20
10.414000
 11
0.000000
 21
0.000000
 40
0.762000
 41
1.266667
 50
0.000000
  7
STANDARD
 71
0
 72
0
  1
C5
 73
0
  0
POLYLINE
  8
PIN_TOP
 66
1
 70
1
 40
0.000000
 41
0.000000
 39
0.000000
  0
VERTEX
  8
PIN_TOP
 10
12.090400
 20
10.325100
 40
0.000000
 41
0.000000
 42
0.000000
  0
VERTEX
  8
PIN_TOP
 10
11.277600
 20
10.325100
 40
0.000000
 41
0.000000
 42
0.000000
  0
VERTEX
  8
PIN_TOP
 10
11.277600
 20
11.214100
 40
0.000000
 41
0.000000
 42
0.000000
  0
VERTEX
  8
PIN_TOP
 10
12.090400
 20
11.214100
 40
0.000000
 41
0.000000
 42
0.000000
  0
SEQEND
  0
POLYLINE
  8
PIN_TOP
 66
1
 70
1
 40
0.000000
 41
0.000000
 39
0.000000
  0
VERTEX
  8
PIN_TOP
 10
12.090400
 20
8.801100
 40
0.000000
 41
0.000000
 42
0.000000
  0
VERTEX
  8
PIN_TOP
 10
11.277600
 20
8.801100
 40
0.000000
 41
0.000000
 42
0.000000
  0
VERTEX
  8
PIN_TOP
 10
11.277600
 20
9.690100
 40
0.000000
 41
0.000000
 42
0.000000
  0
VERTEX
  8
PIN_TOP
 10
12.090400
 20
9.690100
 40
0.000000
 41
0.000000
 42
0.000000
  0
SEQEND
  0
POLYLINE
  8
PG_SILKSCREEN_TOP
 66
1
 70
0
 40
0.000000
 41
0.000000
 39
0.000000
  0
VERTEX
  8
PG_SILKSCREEN_TOP
 10
11.049000
 20
10.261600
 40
0.127000
 41
0.127000
 42
0.000000
  0
VERTEX
  8
PG_SILKSCREEN_TOP
 10
11.049000
 20
11.404600
 40
0.127000
 41
0.127000
 42
0.000000
  0
VERTEX
  8
PG_SILKSCREEN_TOP
 10
12.319000
 20
11.404600
 40
0.127000
 41
0.127000
 42
0.000000
  0
VERTEX
  8
PG_SILKSCREEN_TOP
 10
12.319000
 20
10.261600
 40
0.127000
 41
0.127000
 42
0.000000
  0
SEQEND
  0
POLYLINE
  8
PG_SILKSCREEN_TOP
 66
1
 70
0
 40
0.000000
 41
0.000000
 39
0.000000
  0
VERTEX
  8
PG_SILKSCREEN_TOP
 10
12.319000
 20
9.753600
 40
0.127000
 41
0.127000
 42
0.000000
  0
VERTEX
  8
PG_SILKSCREEN_TOP
 10
12.319000
 20
8.610600
 40
0.127000
 41
0.127000
 42
0.000000
  0
VERTEX
  8
PG_SILKSCREEN_TOP
 10
11.049000
 20
8.610600
 40
0.127000
 41
0.127000
 42
0.000000
  0
SEQEND
  0
POLYLINE
  8
PG_SILKSCREEN_TOP
 66
1
 70
0
 40
0.000000
 41
0.000000
 39
0.000000
  0
VERTEX
  8
PG_SILKSCREEN_TOP
 10
11.404600
 20
10.083800
 40
0.127000
 41
0.127000
 42
0.000000
  0
VERTEX
  8
PG_SILKSCREEN_TOP
 10
11.988800
 20
10.083800
 40
0.127000
 41
0.127000
 42
0.000000
  0
SEQEND
  0
POLYLINE
  8
PG_SILKSCREEN_TOP
 66
1
 70
0
 40
0.000000
 41
0.000000
 39
0.000000
  0
VERTEX
  8
PG_SILKSCREEN_TOP
 10
11.404600
 20
9.906000
 40
0.127000
 41
0.127000
 42
0.000000
  0
VERTEX
  8
PG_SILKSCREEN_TOP
 10
11.988800
 20
9.906000
 40
0.127000
 41
0.127000
 42
0.000000
  0
SEQEND
  0
POLYLINE
  8
PG_SILKSCREEN_TOP
 66
1
 70
0
 40
0.000000
 41
0.000000
 39
0.000000
  0
VERTEX
  8
PG_SILKSCREEN_TOP
 10
11.049000
 20
8.610600
 40
0.127000
 41
0.127000
 42
0.000000
  0
VERTEX
  8
PG_SILKSCREEN_TOP
 10
11.049000
 20
9.753600
 40
0.127000
 41
0.127000
 42
0.000000
  0
SEQEND
  0
TEXT
  8
RE_SILKSCREEN_TOP
 10
14.732000
 20
9.271000
 11
0.000000
 21
0.000000
 40
0.762000
 41
1.266667
 50
90.000000
  7
STANDARD
 71
0
 72
0
  1
C4
 73
0
  0
POLYLINE
  8
PIN_TOP
 66
1
 70
1
 40
0.000000
 41
0.000000
 39
0.000000
  0
VERTEX
  8
PIN_TOP
 10
7.086600
 20
1.460500
 40
0.000000
 41
0.000000
 42
0.000000
  0
VERTEX
  8
PIN_TOP
 10
7.899400
 20
1.460500
 40
0.000000
 41
0.000000
 42
0.000000
  0
VERTEX
  8
PIN_TOP
 10
7.899400
 20
0.571500
 40
0.000000
 41
0.000000
 42
0.000000
  0
VERTEX
  8
PIN_TOP
 10
7.086600
 20
0.571500
 40
0.000000
 41
0.000000
 42
0.000000
  0
SEQEND
  0
POLYLINE
  8
PIN_TOP
 66
1
 70
1
 40
0.000000
 41
0.000000
 39
0.000000
  0
VERTEX
  8
PIN_TOP
 10
7.086600
 20
2.984500
 40
0.000000
 41
0.000000
 42
0.000000
  0
VERTEX
  8
PIN_TOP
 10
7.899400
 20
2.984500
 40
0.000000
 41
0.000000
 42
0.000000
  0
VERTEX
  8
PIN_TOP
 10
7.899400
 20
2.095500
 40
0.000000
 41
0.000000
 42
0.000000
  0
VERTEX
  8
PIN_TOP
 10
7.086600
 20
2.095500
 40
0.000000
 41
0.000000
 42
0.000000
  0
SEQEND
  0
POLYLINE
  8
PG_SILKSCREEN_TOP
 66
1
 70
0
 40
0.000000
 41
0.000000
 39
0.000000
  0
VERTEX
  8
PG_SILKSCREEN_TOP
 10
8.128000
 20
1.524000
 40
0.127000
 41
0.127000
 42
0.000000
  0
VERTEX
  8
PG_SILKSCREEN_TOP
 10
8.128000
 20
0.381000
 40
0.127000
 41
0.127000
 42
0.000000
  0
VERTEX
  8
PG_SILKSCREEN_TOP
 10
6.858000
 20
0.381000
 40
0.127000
 41
0.127000
 42
0.000000
  0
VERTEX
  8
PG_SILKSCREEN_TOP
 10
6.858000
 20
1.524000
 40
0.127000
 41
0.127000
 42
0.000000
  0
SEQEND
  0
POLYLINE
  8
PG_SILKSCREEN_TOP
 66
1
 70
0
 40
0.000000
 41
0.000000
 39
0.000000
  0
VERTEX
  8
PG_SILKSCREEN_TOP
 10
6.858000
 20
2.032000
 40
0.127000
 41
0.127000
 42
0.000000
  0
VERTEX
  8
PG_SILKSCREEN_TOP
 10
6.858000
 20
3.175000
 40
0.127000
 41
0.127000
 42
0.000000
  0
VERTEX
  8
PG_SILKSCREEN_TOP
 10
8.128000
 20
3.175000
 40
0.127000
 41
0.127000
 42
0.000000
  0
SEQEND
  0
POLYLINE
  8
PG_SILKSCREEN_TOP
 66
1
 70
0
 40
0.000000
 41
0.000000
 39
0.000000
  0
VERTEX
  8
PG_SILKSCREEN_TOP
 10
7.772400
 20
1.701800
 40
0.127000
 41
0.127000
 42
0.000000
  0
VERTEX
  8
PG_SILKSCREEN_TOP
 10
7.188200
 20
1.701800
 40
0.127000
 41
0.127000
 42
0.000000
  0
SEQEND
  0
POLYLINE
  8
PG_SILKSCREEN_TOP
 66
1
 70
0
 40
0.000000
 41
0.000000
 39
0.000000
  0
VERTEX
  8
PG_SILKSCREEN_TOP
 10
7.772400
 20
1.879600
 40
0.127000
 41
0.127000
 42
0.000000
  0
VERTEX
  8
PG_SILKSCREEN_TOP
 10
7.188200
 20
1.879600
 40
0.127000
 41
0.127000
 42
0.000000
  0
SEQEND
  0
POLYLINE
  8
PG_SILKSCREEN_TOP
 66
1
 70
0
 40
0.000000
 41
0.000000
 39
0.000000
  0
VERTEX
  8
PG_SILKSCREEN_TOP
 10
8.128000
 20
3.175000
 40
0.127000
 41
0.127000
 42
0.000000
  0
VERTEX
  8
PG_SILKSCREEN_TOP
 10
8.128000
 20
2.032000
 40
0.127000
 41
0.127000
 42
0.000000
  0
SEQEND
  0
TEXT
  8
RE_SILKSCREEN_TOP
 10
16.510000
 20
6.731000
 11
0.000000
 21
0.000000
 40
0.762000
 41
1.266667
 50
0.000000
  7
STANDARD
 71
0
 72
0
  1
C7
 73
0
  0
POLYLINE
  8
PIN_TOP
 66
1
 70
1
 40
0.000000
 41
0.000000
 39
0.000000
  0
VERTEX
  8
PIN_TOP
 10
5.129543
 20
9.787788
 40
0.000000
 41
0.000000
 42
0.000000
  0
VERTEX
  8
PIN_TOP
 10
6.328448
 20
9.787788
 40
0.000000
 41
0.000000
 42
0.000000
  0
VERTEX
  8
PIN_TOP
 10
6.328448
 20
7.588199
 40
0.000000
 41
0.000000
 42
0.000000
  0
VERTEX
  8
PIN_TOP
 10
5.129543
 20
7.588199
 40
0.000000
 41
0.000000
 42
0.000000
  0
SEQEND
  0
POLYLINE
  8
PIN_TOP
 66
1
 70
1
 40
0.000000
 41
0.000000
 39
0.000000
  0
VERTEX
  8
PIN_TOP
 10
2.829547
 20
9.787788
 40
0.000000
 41
0.000000
 42
0.000000
  0
VERTEX
  8
PIN_TOP
 10
4.028453
 20
9.787788
 40
0.000000
 41
0.000000
 42
0.000000
  0
VERTEX
  8
PIN_TOP
 10
4.028453
 20
7.588199
 40
0.000000
 41
0.000000
 42
0.000000
  0
VERTEX
  8
PIN_TOP
 10
2.829547
 20
7.588199
 40
0.000000
 41
0.000000
 42
0.000000
  0
SEQEND
  0
POLYLINE
  8
PIN_TOP
 66
1
 70
1
 40
0.000000
 41
0.000000
 39
0.000000
  0
VERTEX
  8
PIN_TOP
 10
0.529552
 20
9.787788
 40
0.000000
 41
0.000000
 42
0.000000
  0
VERTEX
  8
PIN_TOP
 10
1.728457
 20
9.787788
 40
0.000000
 41
0.000000
 42
0.000000
  0
VERTEX
  8
PIN_TOP
 10
1.728457
 20
7.588199
 40
0.000000
 41
0.000000
 42
0.000000
  0
VERTEX
  8
PIN_TOP
 10
0.529552
 20
7.588199
 40
0.000000
 41
0.000000
 42
0.000000
  0
SEQEND
  0
POLYLINE
  8
PIN_TOP
 66
1
 70
1
 40
0.000000
 41
0.000000
 39
0.000000
  0
VERTEX
  8
PIN_TOP
 10
5.179047
 20
3.562401
 40
0.000000
 41
0.000000
 42
0.000000
  0
VERTEX
  8
PIN_TOP
 10
5.179047
 20
1.413612
 40
0.000000
 41
0.000000
 42
0.000000
  0
VERTEX
  8
PIN_TOP
 10
1.678953
 20
1.413612
 40
0.000000
 41
0.000000
 42
0.000000
  0
VERTEX
  8
PIN_TOP
 10
1.678953
 20
3.562401
 40
0.000000
 41
0.000000
 42
0.000000
  0
SEQEND
  0
POLYLINE
  8
PG_SILKSCREEN_TOP
 66
1
 70
0
 40
0.000000
 41
0.000000
 39
0.000000
  0
VERTEX
  8
PG_SILKSCREEN_TOP
 10
6.731000
 20
3.937000
 40
0.127000
 41
0.127000
 42
0.000000
  0
VERTEX
  8
PG_SILKSCREEN_TOP
 10
0.127000
 20
3.937000
 40
0.127000
 41
0.127000
 42
0.000000
  0
VERTEX
  8
PG_SILKSCREEN_TOP
 10
0.127000
 20
7.239000
 40
0.127000
 41
0.127000
 42
0.000000
  0
VERTEX
  8
PG_SILKSCREEN_TOP
 10
6.731000
 20
7.239000
 40
0.127000
 41
0.127000
 42
0.000000
  0
VERTEX
  8
PG_SILKSCREEN_TOP
 10
6.731000
 20
3.937000
 40
0.127000
 41
0.127000
 42
0.000000
  0
SEQEND
  0
TEXT
  8
RE_SILKSCREEN_TOP
 10
2.921000
 20
0.381000
 11
3.175000
 21
0.381000
 40
0.762000
 41
1.266667
 50
0.000000
  7
STANDARD
 71
0
 72
1
  1
U2
 73
0
  0
POLYLINE
  8
PIN_TOP
 66
1
 70
1
 40
0.000000
 41
0.000000
 39
0.000000
  0
VERTEX
  8
PIN_TOP
 10
17.056100
 20
14.008100
 40
0.000000
 41
0.000000
 42
0.000000
  0
VERTEX
  8
PIN_TOP
 10
17.056100
 20
12.407900
 40
0.000000
 41
0.000000
 42
0.000000
  0
VERTEX
  8
PIN_TOP
 10
15.455900
 20
12.407900
 40
0.000000
 41
0.000000
 42
0.000000
  0
VERTEX
  8
PIN_TOP
 10
15.455900
 20
14.008100
 40
0.000000
 41
0.000000
 42
0.000000
  0
SEQEND
  0
CIRCLE
  8
PIN_TOP
 10
13.716000
 20
13.208000
 40
0.800100
  0
CIRCLE
  8
PIN_TOP
 10
11.176000
 20
13.208000
 40
0.800100
  0
CIRCLE
  8
PIN_TOP
 10
8.636000
 20
13.208000
 40
0.800100
  0
CIRCLE
  8
PIN_TOP
 10
6.096000
 20
13.208000
 40
0.800100
  0
CIRCLE
  8
PIN_TOP
 10
3.556000
 20
13.208000
 40
0.800100
  0
POLYLINE
  8
PG_SILKSCREEN_TOP
 66
1
 70
0
 40
0.000000
 41
0.000000
 39
0.000000
  0
VERTEX
  8
PG_SILKSCREEN_TOP
 10
17.780000
 20
11.684000
 40
0.127000
 41
0.127000
 42
0.000000
  0
VERTEX
  8
PG_SILKSCREEN_TOP
 10
17.780000
 20
14.732000
 40
0.127000
 41
0.127000
 42
0.000000
  0
VERTEX
  8
PG_SILKSCREEN_TOP
 10
2.032000
 20
14.732000
 40
0.127000
 41
0.127000
 42
0.000000
  0
VERTEX
  8
PG_SILKSCREEN_TOP
 10
2.032000
 20
11.684000
 40
0.127000
 41
0.127000
 42
0.000000
  0
VERTEX
  8
PG_SILKSCREEN_TOP
 10
17.780000
 20
11.684000
 40
0.127000
 41
0.127000
 42
0.000000
  0
SEQEND
  0
TEXT
  8
RE_SILKSCREEN_TOP
 10
18.415000
 20
12.954000
 11
18.669000
 21
12.954000
 40
0.762000
 41
1.266667
 50
0.000000
  7
STANDARD
 71
0
 72
1
  1
J1
 73
0
  0
POLYLINE
  8
PIN_TOP
 66
1
 70
1
 40
0.000000
 41
0.000000
 39
0.000000
  0
VERTEX
  8
PIN_TOP
 10
8.932837
 20
3.642601
 40
0.000000
 41
0.000000
 42
0.000000
  0
VERTEX
  8
PIN_TOP
 10
8.633142
 20
3.642601
 40
0.000000
 41
0.000000
 42
0.000000
  0
VERTEX
  8
PIN_TOP
 10
8.633142
 20
4.041407
 40
0.000000
 41
0.000000
 42
0.000000
  0
VERTEX
  8
PIN_TOP
 10
8.932837
 20
4.041407
 40
0.000000
 41
0.000000
 42
0.000000
  0
SEQEND
  0
POLYLINE
  8
PIN_TOP
 66
1
 70
1
 40
0.000000
 41
0.000000
 39
0.000000
  0
VERTEX
  8
PIN_TOP
 10
9.432836
 20
3.642601
 40
0.000000
 41
0.000000
 42
0.000000
  0
VERTEX
  8
PIN_TOP
 10
9.133141
 20
3.642601
 40
0.000000
 41
0.000000
 42
0.000000
  0
VERTEX
  8
PIN_TOP
 10
9.133141
 20
4.041407
 40
0.000000
 41
0.000000
 42
0.000000
  0
VERTEX
  8
PIN_TOP
 10
9.432836
 20
4.041407
 40
0.000000
 41
0.000000
 42
0.000000
  0
SEQEND
  0
POLYLINE
  8
PIN_TOP
 66
1
 70
1
 40
0.000000
 41
0.000000
 39
0.000000
  0
VERTEX
  8
PIN_TOP
 10
9.932835
 20
3.642601
 40
0.000000
 41
0.000000
 42
0.000000
  0
VERTEX
  8
PIN_TOP
 10
9.633140
 20
3.642601
 40
0.000000
 41
0.000000
 42
0.000000
  0
VERTEX
  8
PIN_TOP
 10
9.633140
 20
4.041407
 40
0.000000
 41
0.000000
 42
0.000000
  0
VERTEX
  8
PIN_TOP
 10
9.932835
 20
4.041407
 40
0.000000
 41
0.000000
 42
0.000000
  0
SEQEND
  0
POLYLINE
  8
PIN_TOP
 66
1
 70
1
 40
0.000000
 41
0.000000
 39
0.000000
  0
VERTEX
  8
PIN_TOP
 10
10.432859
 20
3.642601
 40
0.000000
 41
0.000000
 42
0.000000
  0
VERTEX
  8
PIN_TOP
 10
10.133165
 20
3.642601
 40
0.000000
 41
0.000000
 42
0.000000
  0
VERTEX
  8
PIN_TOP
 10
10.133165
 20
4.041407
 40
0.000000
 41
0.000000
 42
0.000000
  0
VERTEX
  8
PIN_TOP
 10
10.432859
 20
4.041407
 40
0.000000
 41
0.000000
 42
0.000000
  0
SEQEND
  0
POLYLINE
  8
PIN_TOP
 66
1
 70
1
 40
0.000000
 41
0.000000
 39
0.000000
  0
VERTEX
  8
PIN_TOP
 10
10.932859
 20
3.642601
 40
0.000000
 41
0.000000
 42
0.000000
  0
VERTEX
  8
PIN_TOP
 10
10.633164
 20
3.642601
 40
0.000000
 41
0.000000
 42
0.000000
  0
VERTEX
  8
PIN_TOP
 10
10.633164
 20
4.041407
 40
0.000000
 41
0.000000
 42
0.000000
  0
VERTEX
  8
PIN_TOP
 10
10.932859
 20
4.041407
 40
0.000000
 41
0.000000
 42
0.000000
  0
SEQEND
  0
POLYLINE
  8
PIN_TOP
 66
1
 70
1
 40
0.000000
 41
0.000000
 39
0.000000
  0
VERTEX
  8
PIN_TOP
 10
11.432857
 20
3.642601
 40
0.000000
 41
0.000000
 42
0.000000
  0
VERTEX
  8
PIN_TOP
 10
11.133163
 20
3.642601
 40
0.000000
 41
0.000000
 42
0.000000
  0
VERTEX
  8
PIN_TOP
 10
11.133163
 20
4.041407
 40
0.000000
 41
0.000000
 42
0.000000
  0
VERTEX
  8
PIN_TOP
 10
11.432857
 20
4.041407
 40
0.000000
 41
0.000000
 42
0.000000
  0
SEQEND
  0
POLYLINE
  8
PIN_TOP
 66
1
 70
1
 40
0.000000
 41
0.000000
 39
0.000000
  0
VERTEX
  8
PIN_TOP
 10
8.932837
 20
7.642593
 40
0.000000
 41
0.000000
 42
0.000000
  0
VERTEX
  8
PIN_TOP
 10
8.633142
 20
7.642593
 40
0.000000
 41
0.000000
 42
0.000000
  0
VERTEX
  8
PIN_TOP
 10
8.633142
 20
8.041399
 40
0.000000
 41
0.000000
 42
0.000000
  0
VERTEX
  8
PIN_TOP
 10
8.932837
 20
8.041399
 40
0.000000
 41
0.000000
 42
0.000000
  0
SEQEND
  0
POLYLINE
  8
PIN_TOP
 66
1
 70
1
 40
0.000000
 41
0.000000
 39
0.000000
  0
VERTEX
  8
PIN_TOP
 10
9.432836
 20
7.642593
 40
0.000000
 41
0.000000
 42
0.000000
  0
VERTEX
  8
PIN_TOP
 10
9.133141
 20
7.642593
 40
0.000000
 41
0.000000
 42
0.000000
  0
VERTEX
  8
PIN_TOP
 10
9.133141
 20
8.041399
 40
0.000000
 41
0.000000
 42
0.000000
  0
VERTEX
  8
PIN_TOP
 10
9.432836
 20
8.041399
 40
0.000000
 41
0.000000
 42
0.000000
  0
SEQEND
  0
POLYLINE
  8
PIN_TOP
 66
1
 70
1
 40
0.000000
 41
0.000000
 39
0.000000
  0
VERTEX
  8
PIN_TOP
 10
9.932835
 20
7.642593
 40
0.000000
 41
0.000000
 42
0.000000
  0
VERTEX
  8
PIN_TOP
 10
9.633140
 20
7.642593
 40
0.000000
 41
0.000000
 42
0.000000
  0
VERTEX
  8
PIN_TOP
 10
9.633140
 20
8.041399
 40
0.000000
 41
0.000000
 42
0.000000
  0
VERTEX
  8
PIN_TOP
 10
9.932835
 20
8.041399
 40
0.000000
 41
0.000000
 42
0.000000
  0
SEQEND
  0
POLYLINE
  8
PIN_TOP
 66
1
 70
1
 40
0.000000
 41
0.000000
 39
0.000000
  0
VERTEX
  8
PIN_TOP
 10
10.432859
 20
7.642593
 40
0.000000
 41
0.000000
 42
0.000000
  0
VERTEX
  8
PIN_TOP
 10
10.133165
 20
7.642593
 40
0.000000
 41
0.000000
 42
0.000000
  0
VERTEX
  8
PIN_TOP
 10
10.133165
 20
8.041399
 40
0.000000
 41
0.000000
 42
0.000000
  0
VERTEX
  8
PIN_TOP
 10
10.432859
 20
8.041399
 40
0.000000
 41
0.000000
 42
0.000000
  0
SEQEND
  0
POLYLINE
  8
PIN_TOP
 66
1
 70
1
 40
0.000000
 41
0.000000
 39
0.000000
  0
VERTEX
  8
PIN_TOP
 10
10.932859
 20
7.642593
 40
0.000000
 41
0.000000
 42
0.000000
  0
VERTEX
  8
PIN_TOP
 10
10.633164
 20
7.642593
 40
0.000000
 41
0.000000
 42
0.000000
  0
VERTEX
  8
PIN_TOP
 10
10.633164
 20
8.041399
 40
0.000000
 41
0.000000
 42
0.000000
  0
VERTEX
  8
PIN_TOP
 10
10.932859
 20
8.041399
 40
0.000000
 41
0.000000
 42
0.000000
  0
SEQEND
  0
POLYLINE
  8
PIN_TOP
 66
1
 70
1
 40
0.000000
 41
0.000000
 39
0.000000
  0
VERTEX
  8
PIN_TOP
 10
11.432857
 20
7.642593
 40
0.000000
 41
0.000000
 42
0.000000
  0
VERTEX
  8
PIN_TOP
 10
11.133163
 20
7.642593
 40
0.000000
 41
0.000000
 42
0.000000
  0
VERTEX
  8
PIN_TOP
 10
11.133163
 20
8.041399
 40
0.000000
 41
0.000000
 42
0.000000
  0
VERTEX
  8
PIN_TOP
 10
11.432857
 20
8.041399
 40
0.000000
 41
0.000000
 42
0.000000
  0
SEQEND
  0
POLYLINE
  8
PIN_TOP
 66
1
 70
1
 40
0.000000
 41
0.000000
 39
0.000000
  0
VERTEX
  8
PIN_TOP
 10
11.833581
 20
6.942150
 40
0.000000
 41
0.000000
 42
0.000000
  0
VERTEX
  8
PIN_TOP
 10
11.833581
 20
7.241845
 40
0.000000
 41
0.000000
 42
0.000000
  0
VERTEX
  8
PIN_TOP
 10
12.232386
 20
7.241845
 40
0.000000
 41
0.000000
 42
0.000000
  0
VERTEX
  8
PIN_TOP
 10
12.232386
 20
6.942150
 40
0.000000
 41
0.000000
 42
0.000000
  0
SEQEND
  0
POLYLINE
  8
PIN_TOP
 66
1
 70
1
 40
0.000000
 41
0.000000
 39
0.000000
  0
VERTEX
  8
PIN_TOP
 10
11.833581
 20
6.442151
 40
0.000000
 41
0.000000
 42
0.000000
  0
VERTEX
  8
PIN_TOP
 10
11.833581
 20
6.741846
 40
0.000000
 41
0.000000
 42
0.000000
  0
VERTEX
  8
PIN_TOP
 10
12.232386
 20
6.741846
 40
0.000000
 41
0.000000
 42
0.000000
  0
VERTEX
  8
PIN_TOP
 10
12.232386
 20
6.442151
 40
0.000000
 41
0.000000
 42
0.000000
  0
SEQEND
  0
POLYLINE
  8
PIN_TOP
 66
1
 70
1
 40
0.000000
 41
0.000000
 39
0.000000
  0
VERTEX
  8
PIN_TOP
 10
11.833581
 20
5.942152
 40
0.000000
 41
0.000000
 42
0.000000
  0
VERTEX
  8
PIN_TOP
 10
11.833581
 20
6.241847
 40
0.000000
 41
0.000000
 42
0.000000
  0
VERTEX
  8
PIN_TOP
 10
12.232386
 20
6.241847
 40
0.000000
 41
0.000000
 42
0.000000
  0
VERTEX
  8
PIN_TOP
 10
12.232386
 20
5.942152
 40
0.000000
 41
0.000000
 42
0.000000
  0
SEQEND
  0
POLYLINE
  8
PIN_TOP
 66
1
 70
1
 40
0.000000
 41
0.000000
 39
0.000000
  0
VERTEX
  8
PIN_TOP
 10
11.833581
 20
5.442128
 40
0.000000
 41
0.000000
 42
0.000000
  0
VERTEX
  8
PIN_TOP
 10
11.833581
 20
5.741822
 40
0.000000
 41
0.000000
 42
0.000000
  0
VERTEX
  8
PIN_TOP
 10
12.232386
 20
5.741822
 40
0.000000
 41
0.000000
 42
0.000000
  0
VERTEX
  8
PIN_TOP
 10
12.232386
 20
5.442128
 40
0.000000
 41
0.000000
 42
0.000000
  0
SEQEND
  0
POLYLINE
  8
PIN_TOP
 66
1
 70
1
 40
0.000000
 41
0.000000
 39
0.000000
  0
VERTEX
  8
PIN_TOP
 10
11.833581
 20
4.942129
 40
0.000000
 41
0.000000
 42
0.000000
  0
VERTEX
  8
PIN_TOP
 10
11.833581
 20
5.241823
 40
0.000000
 41
0.000000
 42
0.000000
  0
VERTEX
  8
PIN_TOP
 10
12.232386
 20
5.241823
 40
0.000000
 41
0.000000
 42
0.000000
  0
VERTEX
  8
PIN_TOP
 10
12.232386
 20
4.942129
 40
0.000000
 41
0.000000
 42
0.000000
  0
SEQEND
  0
POLYLINE
  8
PIN_TOP
 66
1
 70
1
 40
0.000000
 41
0.000000
 39
0.000000
  0
VERTEX
  8
PIN_TOP
 10
11.833581
 20
4.442130
 40
0.000000
 41
0.000000
 42
0.000000
  0
VERTEX
  8
PIN_TOP
 10
11.833581
 20
4.741824
 40
0.000000
 41
0.000000
 42
0.000000
  0
VERTEX
  8
PIN_TOP
 10
12.232386
 20
4.741824
 40
0.000000
 41
0.000000
 42
0.000000
  0
VERTEX
  8
PIN_TOP
 10
12.232386
 20
4.442130
 40
0.000000
 41
0.000000
 42
0.000000
  0
SEQEND
  0
POLYLINE
  8
PIN_TOP
 66
1
 70
1
 40
0.000000
 41
0.000000
 39
0.000000
  0
VERTEX
  8
PIN_TOP
 10
7.833589
 20
6.942150
 40
0.000000
 41
0.000000
 42
0.000000
  0
VERTEX
  8
PIN_TOP
 10
7.833589
 20
7.241845
 40
0.000000
 41
0.000000
 42
0.000000
  0
VERTEX
  8
PIN_TOP
 10
8.232394
 20
7.241845
 40
0.000000
 41
0.000000
 42
0.000000
  0
VERTEX
  8
PIN_TOP
 10
8.232394
 20
6.942150
 40
0.000000
 41
0.000000
 42
0.000000
  0
SEQEND
  0
POLYLINE
  8
PIN_TOP
 66
1
 70
1
 40
0.000000
 41
0.000000
 39
0.000000
  0
VERTEX
  8
PIN_TOP
 10
7.833589
 20
6.442151
 40
0.000000
 41
0.000000
 42
0.000000
  0
VERTEX
  8
PIN_TOP
 10
7.833589
 20
6.741846
 40
0.000000
 41
0.000000
 42
0.000000
  0
VERTEX
  8
PIN_TOP
 10
8.232394
 20
6.741846
 40
0.000000
 41
0.000000
 42
0.000000
  0
VERTEX
  8
PIN_TOP
 10
8.232394
 20
6.442151
 40
0.000000
 41
0.000000
 42
0.000000
  0
SEQEND
  0
POLYLINE
  8
PIN_TOP
 66
1
 70
1
 40
0.000000
 41
0.000000
 39
0.000000
  0
VERTEX
  8
PIN_TOP
 10
7.833589
 20
5.942152
 40
0.000000
 41
0.000000
 42
0.000000
  0
VERTEX
  8
PIN_TOP
 10
7.833589
 20
6.241847
 40
0.000000
 41
0.000000
 42
0.000000
  0
VERTEX
  8
PIN_TOP
 10
8.232394
 20
6.241847
 40
0.000000
 41
0.000000
 42
0.000000
  0
VERTEX
  8
PIN_TOP
 10
8.232394
 20
5.942152
 40
0.000000
 41
0.000000
 42
0.000000
  0
SEQEND
  0
POLYLINE
  8
PIN_TOP
 66
1
 70
1
 40
0.000000
 41
0.000000
 39
0.000000
  0
VERTEX
  8
PIN_TOP
 10
7.833589
 20
5.442128
 40
0.000000
 41
0.000000
 42
0.000000
  0
VERTEX
  8
PIN_TOP
 10
7.833589
 20
5.741822
 40
0.000000
 41
0.000000
 42
0.000000
  0
VERTEX
  8
PIN_TOP
 10
8.232394
 20
5.741822
 40
0.000000
 41
0.000000
 42
0.000000
  0
VERTEX
  8
PIN_TOP
 10
8.232394
 20
5.442128
 40
0.000000
 41
0.000000
 42
0.000000
  0
SEQEND
  0
POLYLINE
  8
PIN_TOP
 66
1
 70
1
 40
0.000000
 41
0.000000
 39
0.000000
  0
VERTEX
  8
PIN_TOP
 10
7.833589
 20
4.942129
 40
0.000000
 41
0.000000
 42
0.000000
  0
VERTEX
  8
PIN_TOP
 10
7.833589
 20
5.241823
 40
0.000000
 41
0.000000
 42
0.000000
  0
VERTEX
  8
PIN_TOP
 10
8.232394
 20
5.241823
 40
0.000000
 41
0.000000
 42
0.000000
  0
VERTEX
  8
PIN_TOP
 10
8.232394
 20
4.942129
 40
0.000000
 41
0.000000
 42
0.000000
  0
SEQEND
  0
POLYLINE
  8
PIN_TOP
 66
1
 70
1
 40
0.000000
 41
0.000000
 39
0.000000
  0
VERTEX
  8
PIN_TOP
 10
7.833589
 20
4.442130
 40
0.000000
 41
0.000000
 42
0.000000
  0
VERTEX
  8
PIN_TOP
 10
7.833589
 20
4.741824
 40
0.000000
 41
0.000000
 42
0.000000
  0
VERTEX
  8
PIN_TOP
 10
8.232394
 20
4.741824
 40
0.000000
 41
0.000000
 42
0.000000
  0
VERTEX
  8
PIN_TOP
 10
8.232394
 20
4.442130
 40
0.000000
 41
0.000000
 42
0.000000
  0
SEQEND
  0
POLYLINE
  8
PIN_TOP
 66
1
 70
1
 40
0.000000
 41
0.000000
 39
0.000000
  0
VERTEX
  8
PIN_TOP
 10
8.633435
 20
4.442435
 40
0.000000
 41
0.000000
 42
0.000000
  0
VERTEX
  8
PIN_TOP
 10
8.633435
 20
7.241540
 40
0.000000
 41
0.000000
 42
0.000000
  0
VERTEX
  8
PIN_TOP
 10
11.432540
 20
7.241540
 40
0.000000
 41
0.000000
 42
0.000000
  0
VERTEX
  8
PIN_TOP
 10
11.432540
 20
4.442435
 40
0.000000
 41
0.000000
 42
0.000000
  0
SEQEND
  0
POLYLINE
  8
PG_SILKSCREEN_TOP
 66
1
 70
0
 40
0.000000
 41
0.000000
 39
0.000000
  0
VERTEX
  8
PG_SILKSCREEN_TOP
 10
11.605997
 20
3.815004
 40
0.127000
 41
0.127000
 42
0.000000
  0
VERTEX
  8
PG_SILKSCREEN_TOP
 10
12.205995
 20
3.815004
 40
0.127000
 41
0.127000
 42
0.000000
  0
VERTEX
  8
PG_SILKSCREEN_TOP
 10
12.205995
 20
4.215003
 40
0.127000
 41
0.127000
 42
0.000000
  0
SEQEND
  0
POLYLINE
  8
PG_SILKSCREEN_TOP
 66
1
 70
0
 40
0.000000
 41
0.000000
 39
0.000000
  0
VERTEX
  8
PG_SILKSCREEN_TOP
 10
11.605997
 20
7.868996
 40
0.127000
 41
0.127000
 42
0.000000
  0
VERTEX
  8
PG_SILKSCREEN_TOP
 10
12.205995
 20
7.868996
 40
0.127000
 41
0.127000
 42
0.000000
  0
VERTEX
  8
PG_SILKSCREEN_TOP
 10
12.205995
 20
7.468997
 40
0.127000
 41
0.127000
 42
0.000000
  0
SEQEND
  0
POLYLINE
  8
PG_SILKSCREEN_TOP
 66
1
 70
0
 40
0.000000
 41
0.000000
 39
0.000000
  0
VERTEX
  8
PG_SILKSCREEN_TOP
 10
7.515911
 20
7.241997
 40
0.127000
 41
0.127000
 42
1.000010
  0
VERTEX
  8
PG_SILKSCREEN_TOP
 10
6.950100
 20
7.241997
 40
0.127000
 41
0.127000
 42
0.999990
  0
VERTEX
  8
PG_SILKSCREEN_TOP
 10
7.515911
 20
7.241997
 40
0.127000
 41
0.127000
 42
0.000000
  0
SEQEND
  0
POLYLINE
  8
PG_SILKSCREEN_TOP
 66
1
 70
0
 40
0.000000
 41
0.000000
 39
0.000000
  0
VERTEX
  8
PG_SILKSCREEN_TOP
 10
8.460003
 20
3.815004
 40
0.127000
 41
0.127000
 42
0.000000
  0
VERTEX
  8
PG_SILKSCREEN_TOP
 10
7.860005
 20
3.815004
 40
0.127000
 41
0.127000
 42
0.000000
  0
VERTEX
  8
PG_SILKSCREEN_TOP
 10
7.860005
 20
4.215003
 40
0.127000
 41
0.127000
 42
0.000000
  0
SEQEND
  0
POLYLINE
  8
PG_SILKSCREEN_TOP
 66
1
 70
0
 40
0.000000
 41
0.000000
 39
0.000000
  0
VERTEX
  8
PG_SILKSCREEN_TOP
 10
8.460003
 20
7.868996
 40
0.127000
 41
0.127000
 42
0.000000
  0
VERTEX
  8
PG_SILKSCREEN_TOP
 10
7.860005
 20
7.868996
 40
0.127000
 41
0.127000
 42
0.000000
  0
VERTEX
  8
PG_SILKSCREEN_TOP
 10
7.860005
 20
7.468997
 40
0.127000
 41
0.127000
 42
0.000000
  0
SEQEND
  0
TEXT
  8
RE_SILKSCREEN_TOP
 10
12.573000
 20
7.493000
 11
0.000000
 21
0.000000
 40
0.762000
 41
1.266667
 50
0.000000
  7
STANDARD
 71
0
 72
0
  1
U1
 73
0
  0
POLYLINE
  8
BO_SILKSCREEN_TOP
 66
1
 70
0
 40
0.000000
 41
0.000000
 39
0.000000
  0
VERTEX
  8
BO_SILKSCREEN_TOP
 10
16.383000
 20
11.430000
 40
0.127000
 41
0.127000
 42
0.000000
  0
VERTEX
  8
BO_SILKSCREEN_TOP
 10
19.558000
 20
11.430000
 40
0.127000
 41
0.127000
 42
0.000000
  0
VERTEX
  8
BO_SILKSCREEN_TOP
 10
19.558000
 20
9.271000
 40
0.127000
 41
0.127000
 42
0.000000
  0
VERTEX
  8
BO_SILKSCREEN_TOP
 10
16.002000
 20
9.271000
 40
0.127000
 41
0.127000
 42
0.000000
  0
VERTEX
  8
BO_SILKSCREEN_TOP
 10
16.002000
 20
11.430000
 40
0.127000
 41
0.127000
 42
0.000000
  0
VERTEX
  8
BO_SILKSCREEN_TOP
 10
16.383000
 20
11.430000
 40
0.127000
 41
0.127000
 42
0.000000
  0
SEQEND
  0
POLYLINE
  8
BO_SILKSCREEN_TOP
 66
1
 70
0
 40
0.000000
 41
0.000000
 39
0.000000
  0
VERTEX
  8
BO_SILKSCREEN_TOP
 10
18.669000
 20
9.906000
 40
0.152400
 41
0.152400
 42
0.000000
  0
VERTEX
  8
BO_SILKSCREEN_TOP
 10
18.415000
 20
10.160000
 40
0.152400
 41
0.152400
 42
0.000000
  0
SEQEND
  0
POLYLINE
  8
BO_SILKSCREEN_TOP
 66
1
 70
0
 40
0.000000
 41
0.000000
 39
0.000000
  0
VERTEX
  8
BO_SILKSCREEN_TOP
 10
17.145000
 20
9.906000
 40
0.127000
 41
0.127000
 42
0.000000
  0
VERTEX
  8
BO_SILKSCREEN_TOP
 10
18.669000
 20
9.906000
 40
0.127000
 41
0.127000
 42
0.000000
  0
SEQEND
  0
POLYLINE
  8
BO_SILKSCREEN_TOP
 66
1
 70
0
 40
0.000000
 41
0.000000
 39
0.000000
  0
VERTEX
  8
BO_SILKSCREEN_TOP
 10
17.399000
 20
10.795000
 40
0.152400
 41
0.152400
 42
0.000000
  0
VERTEX
  8
BO_SILKSCREEN_TOP
 10
17.145000
 20
11.049000
 40
0.152400
 41
0.152400
 42
0.000000
  0
SEQEND
  0
POLYLINE
  8
BO_SILKSCREEN_TOP
 66
1
 70
0
 40
0.000000
 41
0.000000
 39
0.000000
  0
VERTEX
  8
BO_SILKSCREEN_TOP
 10
17.145000
 20
11.049000
 40
0.152400
 41
0.152400
 42
0.000000
  0
VERTEX
  8
BO_SILKSCREEN_TOP
 10
16.891000
 20
10.795000
 40
0.152400
 41
0.152400
 42
0.000000
  0
SEQEND
  0
POLYLINE
  8
BO_SILKSCREEN_TOP
 66
1
 70
0
 40
0.000000
 41
0.000000
 39
0.000000
  0
VERTEX
  8
BO_SILKSCREEN_TOP
 10
18.669000
 20
9.906000
 40
0.152400
 41
0.152400
 42
0.000000
  0
VERTEX
  8
BO_SILKSCREEN_TOP
 10
18.415000
 20
9.652000
 40
0.152400
 41
0.152400
 42
0.000000
  0
SEQEND
  0
POLYLINE
  8
BO_SILKSCREEN_TOP
 66
1
 70
0
 40
0.000000
 41
0.000000
 39
0.000000
  0
VERTEX
  8
BO_SILKSCREEN_TOP
 10
17.145000
 20
11.049000
 40
0.127000
 41
0.127000
 42
0.000000
  0
VERTEX
  8
BO_SILKSCREEN_TOP
 10
17.145000
 20
9.906000
 40
0.127000
 41
0.127000
 42
0.000000
  0
SEQEND
  0
POLYLINE
  8
BO_SILKSCREEN_TOP
 66
1
 70
0
 40
0.000000
 41
0.000000
 39
0.000000
  0
VERTEX
  8
BO_SILKSCREEN_TOP
 10
15.748000
 20
8.255000
 40
0.203200
 41
0.203200
 42
0.000000
  0
VERTEX
  8
BO_SILKSCREEN_TOP
 10
16.256000
 20
8.255000
 40
0.203200
 41
0.203200
 42
0.000000
  0
SEQEND
  0
POLYLINE
  8
BO_SILKSCREEN_TOP
 66
1
 70
0
 40
0.000000
 41
0.000000
 39
0.000000
  0
VERTEX
  8
BO_SILKSCREEN_TOP
 10
6.223000
 20
3.683000
 40
0.203200
 41
0.203200
 42
0.000000
  0
VERTEX
  8
BO_SILKSCREEN_TOP
 10
6.223000
 20
3.302000
 40
0.203200
 41
0.203200
 42
0.000000
  0
SEQEND
  0
POLYLINE
  8
BO_SILKSCREEN_TOP
 66
1
 70
0
 40
0.000000
 41
0.000000
 39
0.000000
  0
VERTEX
  8
BO_SILKSCREEN_TOP
 10
16.129000
 20
9.017000
 40
0.203200
 41
0.203200
 42
0.000000
  0
VERTEX
  8
BO_SILKSCREEN_TOP
 10
18.415000
 20
9.017000
 40
0.203200
 41
0.203200
 42
0.000000
  0
VERTEX
  8
BO_SILKSCREEN_TOP
 10
18.415000
 20
0.889000
 40
0.203200
 41
0.203200
 42
0.000000
  0
VERTEX
  8
BO_SILKSCREEN_TOP
 10
17.780000
 20
0.254000
 40
0.203200
 41
0.203200
 42
0.000000
  0
VERTEX
  8
BO_SILKSCREEN_TOP
 10
5.207000
 20
0.254000
 40
0.203200
 41
0.203200
 42
0.000000
  0
VERTEX
  8
BO_SILKSCREEN_TOP
 10
4.953000
 20
0.508000
 40
0.203200
 41
0.203200
 42
0.000000
  0
VERTEX
  8
BO_SILKSCREEN_TOP
 10
4.953000
 20
0.889000
 40
0.203200
 41
0.203200
 42
0.000000
  0
SEQEND
  0
POLYLINE
  8
BG_OUTLINE
 66
1
 70
0
 40
0.000000
 41
0.000000
 39
0.000000
  0
VERTEX
  8
BG_OUTLINE
 10
0.499999
 20
0.000000
 40
0.000000
 41
0.000000
 42
0.000000
  0
VERTEX
  8
BG_OUTLINE
 10
19.500012
 20
0.000000
 40
0.000000
 41
0.000000
 42
0.414208
  0
VERTEX
  8
BG_OUTLINE
 10
20.000011
 20
0.499999
 40
0.000000
 41
0.000000
 42
0.000000
  0
VERTEX
  8
BG_OUTLINE
 10
20.000011
 20
14.499996
 40
0.000000
 41
0.000000
 42
0.414210
  0
VERTEX
  8
BG_OUTLINE
 10
19.500012
 20
14.999995
 40
0.000000
 41
0.000000
 42
0.000000
  0
VERTEX
  8
BG_OUTLINE
 10
0.499999
 20
14.999995
 40
0.000000
 41
0.000000
 42
0.414214
  0
VERTEX
  8
BG_OUTLINE
 10
0.000000
 20
14.499996
 40
0.000000
 41
0.000000
 42
0.000000
  0
VERTEX
  8
BG_OUTLINE
 10
0.000000
 20
0.499999
 40
0.000000
 41
0.000000
 42
0.414212
  0
VERTEX
  8
BG_OUTLINE
 10
0.499999
 20
0.000000
 40
0.000000
 41
0.000000
 42
0.000000
  0
SEQEND
  0
POLYLINE
  8
RE_DISPLAY_TOP
 66
1
 70
1
 40
0.000000
 41
0.000000
 39
0.000000
  0
VERTEX
  8
RE_DISPLAY_TOP
 10
16.756405
 20
13.208000
 40
0.000000
 41
0.000000
 42
1.000000
  0
VERTEX
  8
RE_DISPLAY_TOP
 10
15.755595
 20
13.208000
 40
0.000000
 41
0.000000
 42
1.000000
  0
SEQEND
  0
POLYLINE
  8
RE_DISPLAY_TOP
 66
1
 70
1
 40
0.000000
 41
0.000000
 39
0.000000
  0
VERTEX
  8
RE_DISPLAY_TOP
 10
14.216405
 20
13.208000
 40
0.000000
 41
0.000000
 42
1.000000
  0
VERTEX
  8
RE_DISPLAY_TOP
 10
13.215595
 20
13.208000
 40
0.000000
 41
0.000000
 42
1.000000
  0
SEQEND
  0
POLYLINE
  8
RE_DISPLAY_TOP
 66
1
 70
1
 40
0.000000
 41
0.000000
 39
0.000000
  0
VERTEX
  8
RE_DISPLAY_TOP
 10
11.676405
 20
13.208000
 40
0.000000
 41
0.000000
 42
1.000000
  0
VERTEX
  8
RE_DISPLAY_TOP
 10
10.675595
 20
13.208000
 40
0.000000
 41
0.000000
 42
1.000000
  0
SEQEND
  0
POLYLINE
  8
RE_DISPLAY_TOP
 66
1
 70
1
 40
0.000000
 41
0.000000
 39
0.000000
  0
VERTEX
  8
RE_DISPLAY_TOP
 10
9.136405
 20
13.208000
 40
0.000000
 41
0.000000
 42
1.000000
  0
VERTEX
  8
RE_DISPLAY_TOP
 10
8.135595
 20
13.208000
 40
0.000000
 41
0.000000
 42
1.000000
  0
SEQEND
  0
POLYLINE
  8
RE_DISPLAY_TOP
 66
1
 70
1
 40
0.000000
 41
0.000000
 39
0.000000
  0
VERTEX
  8
RE_DISPLAY_TOP
 10
6.596405
 20
13.208000
 40
0.000000
 41
0.000000
 42
1.000000
  0
VERTEX
  8
RE_DISPLAY_TOP
 10
5.595595
 20
13.208000
 40
0.000000
 41
0.000000
 42
1.000000
  0
SEQEND
  0
POLYLINE
  8
RE_DISPLAY_TOP
 66
1
 70
1
 40
0.000000
 41
0.000000
 39
0.000000
  0
VERTEX
  8
RE_DISPLAY_TOP
 10
4.056405
 20
13.208000
 40
0.000000
 41
0.000000
 42
1.000000
  0
VERTEX
  8
RE_DISPLAY_TOP
 10
3.055595
 20
13.208000
 40
0.000000
 41
0.000000
 42
1.000000
  0
SEQEND
  0
POLYLINE
  8
BO_SILKSCREEN_TOP
 66
1
 70
1
 40
0.000000
 41
0.000000
 39
0.000000
  0
VERTEX
  8
BO_SILKSCREEN_TOP
 10
17.399000
 20
9.906000
 40
0.000000
 41
0.000000
 42
1.000000
  0
VERTEX
  8
BO_SILKSCREEN_TOP
 10
16.891000
 20
9.906000
 40
0.000000
 41
0.000000
 42
1.000000
  0
SEQEND
  0
TEXT
  8
BO_SILKSCREEN_TOP
 10
16.383000
 20
9.652000
 11
0.000000
 21
0.000000
 40
0.635000
 41
0.880000
 50
0.000000
  7
STANDARD
 71
0
 72
0
  1
z
 73
0
  0
TEXT
  8
BO_SILKSCREEN_TOP
 10
18.796000
 20
9.652000
 11
0.000000
 21
0.000000
 40
0.635000
 41
0.880000
 50
0.000000
  7
STANDARD
 71
0
 72
0
  1
x
 73
0
  0
TEXT
  8
BO_SILKSCREEN_TOP
 10
17.399000
 20
10.795000
 11
0.000000
 21
0.000000
 40
0.635000
 41
0.880000
 50
0.000000
  7
STANDARD
 71
0
 72
0
  1
y
 73
0
  0
ENDSEC
  0
EOF
