  0
SECTION
  2
HEADER
  9
$ACADVER
  1
AC1009
  9
$INSBASE
 10
0.000000
 20
0.000000
  9
$LIMMIN
 10
-50.800000
 20
-55.880000
  9
$LIMMAX
 10
482.600000
 20
375.920000
  9
$EXTMIN
 10
-50.800000
 20
-55.880000
  9
$EXTMAX
 10
482.600000
 20
375.920000
  9
$ATTMODE
 70
0
  9
$LUNITS
 70
2
  9
$LUPREC
 70
3
  9
$THICKNESS
 40
0.264160
  0
ENDSEC
  0
SECTION
  2
TABLES
  0
TABLE
  2
LTYPE
 70
1
  0
LTYPE
  3
Solid Line
  2
CONTINUOUS
 70
0
 72
65
 73
0
 40
0.000000
  0
ENDTAB
  0
TABLE
  2
LAYER
 70
6
  0
LAYER
  2
BG_OUTLINE
 70
0
 62
6
  6
CONTINUOUS
  0
LAYER
  2
BO_SILKSCREEN_BOTTOM
 70
0
 62
4
  6
CONTINUOUS
  0
LAYER
  2
PG_SILKSCREEN_BOTTOM
 70
0
 62
4
  6
CONTINUOUS
  0
LAYER
  2
RE_SILKSCREEN_BOTTOM
 70
0
 62
140
  6
CONTINUOUS
  0
LAYER
  2
RE_DISPLAY_TOP
 70
0
 62
142
  6
CONTINUOUS
  0
LAYER
  2
PIN_BOTTOM
 70
0
 62
141
  6
CONTINUOUS
  0
ENDTAB
  0
TABLE
  2
STYLE
 70
1
  0
STYLE
  2
STANDARD
 70
0
 40
0.000000
 41
1.000000
 50
0.000000
 71
0
 42
0.200000
  3
txt
  0
ENDTAB
  0
ENDSEC
  0
SECTION
  2
BLOCKS
  0
BLOCK
  8
0
  2
FIGURE_CIRCLE
 70
0
 10
0.000000
 20
0.000000
  0
CIRCLE
  8
0
 10
0.000000
 20
0.000000
 40
0.500000
  0
ENDBLK
  0
BLOCK
  8
0
  2
FIGURE_SQUARE
 70
0
 10
0.000000
 20
0.000000
  0
POLYLINE
  8
0
 66
1
 70
1
 40
0.000000
 41
0.000000
 39
0.000000
  0
VERTEX
  8
0
 10
-0.500000
 20
-0.500000
 40
0.000000
 41
0.000000
 42
0.000000
  0
VERTEX
  8
0
 10
-0.500000
 20
0.500000
 40
0.000000
 41
0.000000
 42
0.000000
  0
VERTEX
  8
0
 10
0.500000
 20
0.500000
 40
0.000000
 41
0.000000
 42
0.000000
  0
VERTEX
  8
0
 10
0.500000
 20
-0.500000
 40
0.000000
 41
0.000000
 42
0.000000
  0
SEQEND
  0
ENDBLK
  0
BLOCK
  8
0
  2
FIGURE_HEX
 70
0
 10
0.000000
 20
0.000000
  0
POLYLINE
  8
0
 66
1
 70
1
 40
0.000000
 41
0.000000
 39
0.000000
  0
VERTEX
  8
0
 10
-0.500000
 20
0.000000
 40
0.000000
 41
0.000000
 42
0.000000
  0
VERTEX
  8
0
 10
-0.250000
 20
0.500000
 40
0.000000
 41
0.000000
 42
0.000000
  0
VERTEX
  8
0
 10
0.250000
 20
0.500000
 40
0.000000
 41
0.000000
 42
0.000000
  0
VERTEX
  8
0
 10
0.500000
 20
0.000000
 40
0.000000
 41
0.000000
 42
0.000000
  0
VERTEX
  8
0
 10
0.250000
 20
-0.500000
 40
0.000000
 41
0.000000
 42
0.000000
  0
VERTEX
  8
0
 10
-0.250000
 20
-0.500000
 40
0.000000
 41
0.000000
 42
0.000000
  0
SEQEND
  0
ENDBLK
  0
BLOCK
  8
0
  2
FIGURE_OCT
 70
0
 10
0.000000
 20
0.000000
  0
POLYLINE
  8
0
 66
1
 70
1
 40
0.000000
 41
0.000000
 39
0.000000
  0
VERTEX
  8
0
 10
-0.500000
 20
-0.207100
 40
0.000000
 41
0.000000
 42
0.000000
  0
VERTEX
  8
0
 10
-0.500000
 20
0.207100
 40
0.000000
 41
0.000000
 42
0.000000
  0
VERTEX
  8
0
 10
-0.207100
 20
0.500000
 40
0.000000
 41
0.000000
 42
0.000000
  0
VERTEX
  8
0
 10
0.207100
 20
0.500000
 40
0.000000
 41
0.000000
 42
0.000000
  0
VERTEX
  8
0
 10
0.500000
 20
0.207100
 40
0.000000
 41
0.000000
 42
0.000000
  0
VERTEX
  8
0
 10
0.500000
 20
-0.207100
 40
0.000000
 41
0.000000
 42
0.000000
  0
VERTEX
  8
0
 10
0.207100
 20
-0.500000
 40
0.000000
 41
0.000000
 42
0.000000
  0
VERTEX
  8
0
 10
-0.207100
 20
-0.500000
 40
0.000000
 41
0.000000
 42
0.000000
  0
SEQEND
  0
ENDBLK
  0
BLOCK
  8
0
  2
FIGURE_OBLONG
 70
0
 10
0.000000
 20
0.000000
  0
POLYLINE
  8
0
 66
1
 70
1
 40
0.000000
 41
0.000000
 39
0.000000
  0
VERTEX
  8
0
 10
-0.500000
 20
-0.125000
 40
0.000000
 41
0.000000
 42
0.000000
  0
VERTEX
  8
0
 10
-0.500000
 20
0.125000
 40
0.000000
 41
0.000000
 42
0.000000
  0
VERTEX
  8
0
 10
-0.416000
 20
0.375000
 40
0.000000
 41
0.000000
 42
0.000000
  0
VERTEX
  8
0
 10
-0.250000
 20
0.500000
 40
0.000000
 41
0.000000
 42
0.000000
  0
VERTEX
  8
0
 10
0.250000
 20
0.500000
 40
0.000000
 41
0.000000
 42
0.000000
  0
VERTEX
  8
0
 10
0.416000
 20
0.375000
 40
0.000000
 41
0.000000
 42
0.000000
  0
VERTEX
  8
0
 10
0.500000
 20
0.125000
 40
0.000000
 41
0.000000
 42
0.000000
  0
VERTEX
  8
0
 10
0.500000
 20
-0.125000
 40
0.000000
 41
0.000000
 42
0.000000
  0
VERTEX
  8
0
 10
0.416000
 20
-0.375000
 40
0.000000
 41
0.000000
 42
0.000000
  0
VERTEX
  8
0
 10
0.250000
 20
-0.500000
 40
0.000000
 41
0.000000
 42
0.000000
  0
VERTEX
  8
0
 10
-0.250000
 20
-0.500000
 40
0.000000
 41
0.000000
 42
0.000000
  0
VERTEX
  8
0
 10
-0.416000
 20
-0.375000
 40
0.000000
 41
0.000000
 42
0.000000
  0
SEQEND
  0
ENDBLK
  0
BLOCK
  8
0
  2
FIGURE_TRI
 70
0
 10
0.000000
 20
0.000000
  0
POLYLINE
  8
0
 66
1
 70
1
 40
0.000000
 41
0.000000
 39
0.000000
  0
VERTEX
  8
0
 10
-0.500000
 20
-0.500000
 40
0.000000
 41
0.000000
 42
0.000000
  0
VERTEX
  8
0
 10
0.000000
 20
0.500000
 40
0.000000
 41
0.000000
 42
0.000000
  0
VERTEX
  8
0
 10
0.500000
 20
-0.500000
 40
0.000000
 41
0.000000
 42
0.000000
  0
SEQEND
  0
ENDBLK
  0
BLOCK
  8
0
  2
FIGURE_CROSS
 70
0
 10
0.000000
 20
0.000000
  0
POLYLINE
  8
0
 66
1
 70
0
 40
0.000000
 41
0.000000
 39
0.000000
  0
VERTEX
  8
0
 10
-0.500000
 20
0.000000
 40
0.000000
 41
0.000000
 42
0.000000
  0
VERTEX
  8
0
 10
0.500000
 20
0.000000
 40
0.000000
 41
0.000000
 42
0.000000
  0
SEQEND
  0
POLYLINE
  8
0
 66
1
 70
0
 40
0.000000
 41
0.000000
 39
0.000000
  0
VERTEX
  8
0
 10
0.000000
 20
0.500000
 40
0.000000
 41
0.000000
 42
0.000000
  0
VERTEX
  8
0
 10
0.000000
 20
-0.500000
 40
0.000000
 41
0.000000
 42
0.000000
  0
SEQEND
  0
ENDBLK
  0
BLOCK
  8
0
  2
FIGURE_DIAMOND
 70
0
 10
0.000000
 20
0.000000
  0
POLYLINE
  8
0
 66
1
 70
1
 40
0.000000
 41
0.000000
 39
0.000000
  0
VERTEX
  8
0
 10
-0.500000
 20
0.000000
 40
0.000000
 41
0.000000
 42
0.000000
  0
VERTEX
  8
0
 10
0.000000
 20
0.500000
 40
0.000000
 41
0.000000
 42
0.000000
  0
VERTEX
  8
0
 10
0.500000
 20
0.000000
 40
0.000000
 41
0.000000
 42
0.000000
  0
VERTEX
  8
0
 10
0.000000
 20
-0.500000
 40
0.000000
 41
0.000000
 42
0.000000
  0
SEQEND
  0
ENDBLK
  0
ENDSEC
  0
SECTION
  2
ENTITIES
  0
POLYLINE
  8
PIN_BOTTOM
 66
1
 70
1
 40
0.000000
 41
0.000000
 39
0.000000
  0
VERTEX
  8
PIN_BOTTOM
 10
17.056100
 20
14.008100
 40
0.000000
 41
0.000000
 42
0.000000
  0
VERTEX
  8
PIN_BOTTOM
 10
17.056100
 20
12.407900
 40
0.000000
 41
0.000000
 42
0.000000
  0
VERTEX
  8
PIN_BOTTOM
 10
15.455900
 20
12.407900
 40
0.000000
 41
0.000000
 42
0.000000
  0
VERTEX
  8
PIN_BOTTOM
 10
15.455900
 20
14.008100
 40
0.000000
 41
0.000000
 42
0.000000
  0
SEQEND
  0
CIRCLE
  8
PIN_BOTTOM
 10
13.716000
 20
13.208000
 40
0.800100
  0
CIRCLE
  8
PIN_BOTTOM
 10
11.176000
 20
13.208000
 40
0.800100
  0
CIRCLE
  8
PIN_BOTTOM
 10
8.636000
 20
13.208000
 40
0.800100
  0
CIRCLE
  8
PIN_BOTTOM
 10
6.096000
 20
13.208000
 40
0.800100
  0
CIRCLE
  8
PIN_BOTTOM
 10
3.556000
 20
13.208000
 40
0.800100
  0
POLYLINE
  8
BG_OUTLINE
 66
1
 70
0
 40
0.000000
 41
0.000000
 39
0.000000
  0
VERTEX
  8
BG_OUTLINE
 10
0.499999
 20
0.000000
 40
0.000000
 41
0.000000
 42
0.000000
  0
VERTEX
  8
BG_OUTLINE
 10
19.500012
 20
0.000000
 40
0.000000
 41
0.000000
 42
0.414208
  0
VERTEX
  8
BG_OUTLINE
 10
20.000011
 20
0.499999
 40
0.000000
 41
0.000000
 42
0.000000
  0
VERTEX
  8
BG_OUTLINE
 10
20.000011
 20
14.499996
 40
0.000000
 41
0.000000
 42
0.414210
  0
VERTEX
  8
BG_OUTLINE
 10
19.500012
 20
14.999995
 40
0.000000
 41
0.000000
 42
0.000000
  0
VERTEX
  8
BG_OUTLINE
 10
0.499999
 20
14.999995
 40
0.000000
 41
0.000000
 42
0.414214
  0
VERTEX
  8
BG_OUTLINE
 10
0.000000
 20
14.499996
 40
0.000000
 41
0.000000
 42
0.000000
  0
VERTEX
  8
BG_OUTLINE
 10
0.000000
 20
0.499999
 40
0.000000
 41
0.000000
 42
0.414212
  0
VERTEX
  8
BG_OUTLINE
 10
0.499999
 20
0.000000
 40
0.000000
 41
0.000000
 42
0.000000
  0
SEQEND
  0
POLYLINE
  8
RE_DISPLAY_TOP
 66
1
 70
1
 40
0.000000
 41
0.000000
 39
0.000000
  0
VERTEX
  8
RE_DISPLAY_TOP
 10
16.756405
 20
13.208000
 40
0.000000
 41
0.000000
 42
1.000000
  0
VERTEX
  8
RE_DISPLAY_TOP
 10
15.755595
 20
13.208000
 40
0.000000
 41
0.000000
 42
1.000000
  0
SEQEND
  0
POLYLINE
  8
RE_DISPLAY_TOP
 66
1
 70
1
 40
0.000000
 41
0.000000
 39
0.000000
  0
VERTEX
  8
RE_DISPLAY_TOP
 10
14.216405
 20
13.208000
 40
0.000000
 41
0.000000
 42
1.000000
  0
VERTEX
  8
RE_DISPLAY_TOP
 10
13.215595
 20
13.208000
 40
0.000000
 41
0.000000
 42
1.000000
  0
SEQEND
  0
POLYLINE
  8
RE_DISPLAY_TOP
 66
1
 70
1
 40
0.000000
 41
0.000000
 39
0.000000
  0
VERTEX
  8
RE_DISPLAY_TOP
 10
11.676405
 20
13.208000
 40
0.000000
 41
0.000000
 42
1.000000
  0
VERTEX
  8
RE_DISPLAY_TOP
 10
10.675595
 20
13.208000
 40
0.000000
 41
0.000000
 42
1.000000
  0
SEQEND
  0
POLYLINE
  8
RE_DISPLAY_TOP
 66
1
 70
1
 40
0.000000
 41
0.000000
 39
0.000000
  0
VERTEX
  8
RE_DISPLAY_TOP
 10
9.136405
 20
13.208000
 40
0.000000
 41
0.000000
 42
1.000000
  0
VERTEX
  8
RE_DISPLAY_TOP
 10
8.135595
 20
13.208000
 40
0.000000
 41
0.000000
 42
1.000000
  0
SEQEND
  0
POLYLINE
  8
RE_DISPLAY_TOP
 66
1
 70
1
 40
0.000000
 41
0.000000
 39
0.000000
  0
VERTEX
  8
RE_DISPLAY_TOP
 10
6.596405
 20
13.208000
 40
0.000000
 41
0.000000
 42
1.000000
  0
VERTEX
  8
RE_DISPLAY_TOP
 10
5.595595
 20
13.208000
 40
0.000000
 41
0.000000
 42
1.000000
  0
SEQEND
  0
POLYLINE
  8
RE_DISPLAY_TOP
 66
1
 70
1
 40
0.000000
 41
0.000000
 39
0.000000
  0
VERTEX
  8
RE_DISPLAY_TOP
 10
4.056405
 20
13.208000
 40
0.000000
 41
0.000000
 42
1.000000
  0
VERTEX
  8
RE_DISPLAY_TOP
 10
3.055595
 20
13.208000
 40
0.000000
 41
0.000000
 42
1.000000
  0
SEQEND
  0
TEXT
  8
BO_SILKSCREEN_BOTTOM
 10
18.796000
 20
6.223000
 11
0.000000
 21
0.000000
 40
0.762000
 41
1.266667
 50
0.000000
  7
STANDARD
 71
2
 72
0
  1
MPU6050 Module V1.0
 73
0
  0
TEXT
  8
BO_SILKSCREEN_BOTTOM
 10
4.191000
 20
11.303000
 11
0.000000
 21
0.000000
 40
0.635000
 41
1.120000
 50
0.000000
  7
STANDARD
 71
2
 72
0
  1
GND
 73
0
  0
TEXT
  8
BO_SILKSCREEN_BOTTOM
 10
16.764000
 20
11.303000
 11
0.000000
 21
0.000000
 40
0.635000
 41
1.120000
 50
0.000000
  7
STANDARD
 71
2
 72
0
  1
5V
 73
0
  0
TEXT
  8
BO_SILKSCREEN_BOTTOM
 10
14.605000
 20
11.303000
 11
0.000000
 21
0.000000
 40
0.635000
 41
1.120000
 50
0.000000
  7
STANDARD
 71
2
 72
0
  1
3V3
 73
0
  0
TEXT
  8
BO_SILKSCREEN_BOTTOM
 10
11.938000
 20
11.303000
 11
0.000000
 21
0.000000
 40
0.635000
 41
1.120000
 50
0.000000
  7
STANDARD
 71
2
 72
0
  1
SCL
 73
0
  0
TEXT
  8
BO_SILKSCREEN_BOTTOM
 10
9.398000
 20
11.303000
 11
0.000000
 21
0.000000
 40
0.635000
 41
1.120000
 50
0.000000
  7
STANDARD
 71
2
 72
0
  1
SDA
 73
0
  0
TEXT
  8
BO_SILKSCREEN_BOTTOM
 10
6.858000
 20
11.303000
 11
0.000000
 21
0.000000
 40
0.635000
 41
1.120000
 50
0.000000
  7
STANDARD
 71
2
 72
0
  1
INT
 73
0
  0
ENDSEC
  0
EOF
